<?xml version="1.0" encoding="UTF-8"?><svg id="Layer_1" xmlns="http://www.w3.org/2000/svg" xmlns:xlink="http://www.w3.org/1999/xlink" viewBox="0 0 171.4 137.14"><defs><style>.cls-1{fill:url(#Barra_acciaio);stroke:#b3b3b3;}.cls-1,.cls-2{stroke-width:.9px;}.cls-2{fill:gray;stroke:#e6e6e6;}.cls-3{fill:#fff;}.cls-4{fill:url(#Barra_acciaio-2);}</style><linearGradient id="Barra_acciaio" x1="-1654.03" y1="-1665.19" x2="-1608.03" y2="-1638.02" gradientTransform="translate(3018.7 3021.86) scale(1.8)" gradientUnits="userSpaceOnUse"><stop offset="0" stop-color="#000"/><stop offset="0" stop-color="#090909"/><stop offset=".08" stop-color="#5f5f5f"/><stop offset=".15" stop-color="#a4a4a4"/><stop offset=".2" stop-color="#d5d5d5"/><stop offset=".25" stop-color="#f3f3f3"/><stop offset=".27" stop-color="#fff"/><stop offset="1" stop-color="#4d4d4d"/></linearGradient><linearGradient id="Barra_acciaio-2" x1="-1653.79" y1="-1665.58" x2="-1607.8" y2="-1638.41" xlink:href="#Barra_acciaio"/></defs><polygon class="cls-1" points="82.81 .52 124.75 24.64 124.75 73.24 82.81 97.36 40.84 73.24 40.84 24.64 82.81 .52"/><polygon class="cls-2" points="82.71 8.17 118.17 28.51 118.17 69.37 82.71 89.71 47.41 69.37 47.41 28.51 82.71 8.17"/><path d="M113.89,40.65c-1.89-5.59-5.97-9.71-11.5-11.61-7.47-2.56-13.88-7.17-13.88-7.17-.82-.74-2.34-2.69-2.34-2.69-2.61-3.71-3.65-7.96-3.65-7.96h-1.2c-.74,3.66-3.39,8.3-3.5,8.51-1.49,2.03-2.56,2.69-2.56,2.69-2.44,1.9-6.66,4.31-13.42,6.63-5.52,1.89-9.6,6.01-11.5,11.61-1.83,5.4-1.28,11.27,1.42,15.33,2.09,3.14,5.24,5.05,9.1,5.53,5.46.69,11.55-1.56,16.15-4.06v23.69h10.2v-23.69c4.6,2.51,10.7,4.75,16.15,4.06,3.86-.48,7.01-2.4,9.1-5.53,2.7-4.05,3.25-9.93,1.42-15.33ZM61.76,54.29c-1.78-.22-3.04-.97-3.96-2.36-1.43-2.15-1.67-5.75-.58-8.96.67-1.97,2.46-5.51,6.97-7.06,5.76-1.97,9.88-4.09,12.82-6.15v19.12c-3.28,2.36-10.22,6.04-15.25,5.41ZM106.42,51.94c-.92,1.38-2.18,2.13-3.96,2.36-5.02.63-11.96-3.04-15.25-5.41v-19.12c2.94,2.06,7.06,4.17,12.82,6.15,4.51,1.54,6.3,5.08,6.97,7.06,1.08,3.21.85,6.81-.58,8.96Z"/><path class="cls-3" d="M115.05,41.62c-1.89-5.59-5.98-9.71-11.5-11.61-7.47-2.56-13.88-7.18-13.88-7.18-.83-.74-2.35-2.69-2.35-2.69-2.61-3.71-3.65-7.96-3.65-7.96h-1.2c-.74,3.66-3.39,8.3-3.5,8.51-1.49,2.03-2.56,2.69-2.56,2.69-2.43,1.91-6.66,4.31-13.42,6.63-5.52,1.89-9.61,6.01-11.5,11.61-1.83,5.4-1.28,11.27,1.42,15.33,2.09,3.14,5.24,5.05,9.1,5.54,5.46.68,11.55-1.56,16.15-4.06v23.69h10.2v-23.69c4.6,2.51,10.7,4.75,16.15,4.06,3.86-.49,7.01-2.4,9.1-5.54,2.7-4.05,3.25-9.93,1.42-15.33ZM62.93,55.27c-1.78-.22-3.03-.97-3.96-2.36-1.43-2.15-1.67-5.75-.58-8.96.67-1.97,2.46-5.51,6.97-7.06,5.76-1.97,9.87-4.09,12.82-6.15v19.12c-3.28,2.36-10.22,6.04-15.25,5.41ZM107.58,52.91c-.92,1.38-2.18,2.13-3.96,2.36-5.02.63-11.96-3.04-15.25-5.41v-19.12c2.95,2.06,7.06,4.17,12.82,6.15,4.5,1.54,6.3,5.09,6.96,7.06,1.09,3.21.85,6.81-.58,8.96Z"/><path class="cls-4" d="M114.49,41.02c-1.89-5.59-5.98-9.71-11.5-11.61-7.47-2.56-13.88-7.18-13.88-7.18-.83-.74-2.35-2.69-2.35-2.69-2.61-3.71-3.65-7.96-3.65-7.96h-1.2c-.74,3.66-3.39,8.3-3.5,8.51-1.49,2.03-2.56,2.69-2.56,2.69-2.43,1.91-6.66,4.31-13.42,6.63-5.52,1.89-9.61,6.01-11.5,11.61-1.83,5.4-1.28,11.27,1.42,15.33,2.09,3.14,5.24,5.05,9.1,5.54,5.46.69,11.55-1.56,16.15-4.06v23.69h10.2v-23.69c4.6,2.51,10.7,4.75,16.15,4.06,3.86-.49,7.01-2.4,9.1-5.54,2.7-4.05,3.25-9.93,1.42-15.33ZM62.36,54.67c-1.78-.22-3.03-.97-3.96-2.36-1.43-2.15-1.67-5.75-.58-8.96.67-1.97,2.46-5.51,6.97-7.06,5.76-1.97,9.87-4.09,12.82-6.15v19.12c-3.28,2.36-10.22,6.04-15.25,5.41ZM107.02,52.31c-.92,1.38-2.18,2.13-3.96,2.36-5.02.63-11.96-3.04-15.25-5.41v-19.12c2.95,2.06,7.06,4.17,12.82,6.15,4.5,1.54,6.3,5.08,6.96,7.06,1.09,3.21.85,6.81-.58,8.96Z"/><path d="M3.3,109.17h11.41c8.66,0,11.86,3.54,11.86,9.12s-3.19,9.23-11.86,9.23h-4.98v8.77H3.3v-27.13ZM9.73,123.37h7.17c3.13,0,4.64-2.49,4.64-5.08s-1.5-4.95-4.64-4.95h-7.17v10.03Z"/><path d="M28.87,109.17h6.37v27.13h-6.37v-27.13Z"/><path d="M130.77,109.17h6.37v27.13h-6.37v-27.13Z"/><path d="M37.51,136.3l10.71-27.13h9.57l10.45,27.13h-8.32l-1.82-5.36h-13.5l-1.86,5.36h-5.23ZM46.46,125.7h9.78l-4.76-12.37-5.02,12.37Z"/><path d="M80.59,137.14c-7.75,0-12.81-6.12-12.81-13.6,0-8.21,5.09-15.2,14.74-15.2,6.23,0,12.52,3.15,13.64,9.54h-6.48c-.76-2.96-4.06-5.18-7.21-5.18-4.41,0-7.5,3.39-7.5,10.27s4.13,10.17,7.32,10.17c3,0,6.21-2.45,6.94-5.46h-5.57v-4.18h12.39c-.48,6.73-1.8,13.64-15.46,13.64Z"/><path d="M111.87,137.14c-7.75,0-12.81-6.12-12.81-13.6,0-8.21,5.09-15.2,14.74-15.2,6.23,0,12.52,3.15,13.64,9.54h-6.48c-.76-2.96-4.06-5.18-7.21-5.18-4.41,0-7.5,3.39-7.5,10.27s4.12,10.17,7.32,10.17c3,0,6.22-2.45,6.94-5.46h-5.57v-4.18h12.39c-.48,6.73-1.8,13.64-15.46,13.64Z"/><path d="M155.98,137.14c-8.85,0-15.46-4.86-15.46-14.4s6.61-14.4,15.46-14.4,15.43,4.86,15.43,14.4-6.61,14.4-15.43,14.4ZM155.98,131.9c4.22,0,6.92-3.15,6.92-9.16s-2.7-9.16-6.92-9.16-6.95,3.16-6.95,9.16,2.7,9.16,6.95,9.16Z"/><path d="M3.3,109.17H0v2.31s3.43-.53,3.43,2.64"/></svg>