<?xml version="1.0" encoding="UTF-8"?><svg id="Layer_1" xmlns="http://www.w3.org/2000/svg" viewBox="0 0 150 40"><defs><style>.cls-1{fill-rule:evenodd;}</style></defs><path class="cls-1" d="M129.86,15.25h2.75c.77,0,1.56-.04,2.32.13.77.17,1.52.42,2.24.75.71.33,1.39.73,2.02,1.22.38.29.74.59,1.12.89.8.62,1.59,1.24,2.39,1.86.27.21.51.42.78.62.45.35.9.71,1.42.93.49.2,1.05.26,1.57.24.03,0,.43-.01.43-.03,0-2.19,0-4.41,0-6.6,1.03,0,2.07,0,3.1,0,0,3.33,0,6.7,0,10.02h-2.79c-.09,0-.65,0-.82,0-.93,0-1.87-.2-2.74-.57-.92-.39-1.68-.99-2.48-1.61-1.76-1.36-3.46-3.06-5.49-3.94-.44-.19-.92-.34-1.39-.43-.44-.08-.9-.08-1.35-.05v6.55h-3.1c0-3.34,0-6.62,0-9.96h0Z"/><path d="M82.59,21.8h-2.16c-.68,0-1.38.05-2.02-.24-.63-.28-1.05-.77-1.52-1.28-.58-.64-1.17-1.28-1.75-1.92-.06-.06-.12-.13-.17-.19-.4-.44-.8-.89-1.21-1.32-.51-.54-1.08-.96-1.74-1.26-.27-.12-.55-.19-.83-.25-.23-.05-.46-.07-.69-.07-.23,0-.46.03-.69.07-.28.06-.56.13-.83.25-.66.3-1.23.71-1.74,1.26-.41.44-.81.88-1.21,1.32-.06.06-.12.13-.17.19-.8.88-1.6,1.75-2.39,2.63-.42.46-.84.92-1.26,1.38-.6.66-1.21,1.33-1.81,1.99-.19.22-.39.43-.58.64-.06.07-.12.13-.18.2.01.02,0,0,.01.02h4.36c1.29-1.42,2.56-2.82,3.85-4.23.16-.18.32-.36.49-.54.23-.26.47-.52.7-.77.14-.16.28-.32.43-.46.25-.23.46-.49.85-.56.06-.01.12-.02.17-.02s.11,0,.17.02c.39.08.59.34.85.56.16.14.29.31.43.46.23.26.47.52.7.77.16.18.33.36.49.54.07.08.14.15.2.23.5.55,1.01,1.11,1.52,1.66.63.67,1.29,1.24,2.09,1.65.52.27,1.07.46,1.63.58.56.12,1.12.12,1.69.12h.07c.77,0,1.49,0,2.25,0,0-1.14,0-2.28,0-3.41h0Z"/><path d="M103.72,15.25c-.76,0-1.5,0-2.26,0h-.07c-.57,0-1.12,0-1.69.12-.56.12-1.11.32-1.63.58-.79.41-1.46.98-2.09,1.65-.51.55-1.01,1.1-1.52,1.66-.07.08-.14.15-.2.23-.16.18-.33.36-.49.54-.23.26-.47.52-.7.77-.14.16-.28.32-.43.46-.25.23-.46.49-.85.56-.06.01-.12.02-.17.02s-.11,0-.17-.02c-.39-.08-.59-.34-.85-.56-.16-.14-.29-.31-.43-.46-.23-.26-.47-.52-.7-.77-.16-.18-.33-.36-.49-.54-.07-.08-.14-.15-.2-.23-.5-.55-1.01-1.11-1.52-1.66-.62-.67-1.29-1.24-2.09-1.65-.52-.27-1.07-.46-1.63-.58-.56-.12-1.12-.12-1.69-.12h-.07c-.77,0-1.5,0-2.26,0,0,1.14,0,2.28,0,3.41,0,0,1.99,0,2.17,0,.68,0,1.38-.05,2.02.24.63.28,1.05.77,1.52,1.28.58.64,1.17,1.28,1.75,1.92.06.06.12.13.17.19.4.44.8.89,1.21,1.32.51.54,1.08.96,1.74,1.26.27.12.55.19.83.25.23.05.46.07.69.07.23,0,.46-.03.69-.07.28-.06.56-.13.83-.25.66-.3,1.23-.71,1.74-1.26.41-.44.81-.88,1.21-1.32.06-.06.12-.13.17-.19.58-.64,1.17-1.28,1.75-1.92.47-.51.9-1,1.52-1.28.35-.16.72-.21,1.09-.23v6.54h3.1s0-9.44,0-9.96h0Z"/><path d="M58.56,19.2c-.01-.11-.02-.21-.03-.32-.05-.28-.09-.54-.17-.78-.32-.92-.93-1.67-1.7-2.16-.12-.08-.24-.15-.37-.21-.71-.36-1.44-.38-2.22-.41-1.03-.04-2.06-.07-3.09-.07h-12.05v3.42h14.62c.36,0,.77-.03,1.12.05.27.06.48.22.63.47.18.31.18.68.18,1.03,0,.35,0,.72-.18,1.03-.15.26-.36.41-.63.48-.35.08-.77.05-1.12.05h-14.62v3.42h12.05c1.03,0,2.06-.03,3.09-.07.77-.03,1.51-.05,2.22-.41.13-.06.25-.13.37-.21.77-.49,1.37-1.25,1.7-2.16.08-.24.13-.5.17-.78.01-.11.02-.21.03-.32,0-.13,0-.27,0-.4v-1.26c0-.13,0-.27,0-.4Z"/><path d="M126.94,19.2c-.01-.11-.02-.21-.03-.32-.05-.28-.09-.54-.17-.78-.32-.92-.93-1.67-1.7-2.16-.12-.08-.24-.15-.37-.21-.71-.36-1.44-.38-2.22-.41-1.03-.04-2.06-.07-3.09-.07h-5.01c-1.03,0-2.06.03-3.09.07-.77.03-1.51.05-2.22.41-.13.06-.25.13-.37.21-.77.49-1.37,1.25-1.7,2.16-.08.24-.13.5-.17.78-.01.11-.02.21-.03.32,0,.13,0,.27,0,.4v1.26c0,.13,0,.27,0,.4.01.11.02.21.03.32.05.28.09.54.17.78.32.92.93,1.67,1.7,2.16.12.08.24.15.37.21.71.36,1.44.38,2.22.41,1.03.04,2.06.07,3.09.07h5.01c1.03,0,2.06-.03,3.09-.07.77-.03,1.51-.05,2.22-.41.13-.06.25-.13.37-.21.77-.49,1.37-1.25,1.7-2.16.08-.24.13-.5.17-.78.01-.11.02-.21.03-.32,0-.13,0-.27,0-.4v-1.26c0-.13,0-.27,0-.4ZM123.68,21.26c-.15.26-.36.41-.63.48-.35.08-.77.05-1.12.05h-10.15c-.36,0-.77.03-1.12-.05-.27-.06-.48-.22-.63-.48-.18-.31-.19-.67-.18-1.03,0-.35,0-.72.18-1.03.15-.26.36-.41.63-.47.35-.08.77-.05,1.12-.05h10.15c.36,0,.77-.03,1.12.05.27.06.48.22.63.47.18.31.18.68.18,1.03,0,.35,0,.72-.18,1.03Z"/><path d="M16.06,21.67c-3.03.33-4.11,4.45-4.18,5.96-.3,6.26,2.95,9.21,2.95,9.21,0,0,10.71-7.75,7.54-21.34-1.4-5.98-7.92-12-14.75-12.25.75-.6,2.47-1.2,3.69-1.62,4.19.58,9.6,2.35,12.62,6.05,2.53,3.1,4.95,9.2,1.01,18.8-2.53,7.44-10.1,13.53-10.1,13.53,0,0-2.72-2.08-3.69-4.7-2.09-5.61-.69-11.02,1.56-13.27,1.91-1.92,4.26-2.11,5.82-1.53-1.04,3.16-2.46,4.42-2.46,4.42-.01-1.33.16-2.16,0-3.25M.06,4.55c1.36.32,3.27,2.97,4,4.47-.97-.7-2.35-.88-2.35-.88,0,0,.95,12.68,8.82,7.31,5.79-3.95,9.23-1.26,10.76,1.79,1.72,3.42.25,8.04.25,8.04.79-10.43-16.04-7.15-11.91,9.49C4.43,28.33.81,19.25.06,4.55M27.94,4.38s-3.41-.51-3.99,2.11c1.6,1.34,2.63,3.98,2.63,3.98,0,0-.34-1.65.19-3.71.32-1.24,1.17-2.37,1.17-2.37M29.01,4c-1.38-.88-3.74-.44-4.51.34-1.77-1.04-2.52-2.45-6.41-2.69.59,1.07.71,1.51.71,1.51C18.79,3.16,17.02,2.09,14.12,0c8.79-.01,15.68,2.74,15.68,2.74,0,0-.12,9.21-2.03,15.14.08-3.42-.62-5.6-.62-5.6,0,0-.11-1.88.08-3.71.19-1.82.66-3.58,1.76-4.57M21.56,15.88c-4.39-6.63-10.09-1.88-10.09-1.88,0,0,.5-3.44,3-4.59C10.37,4.59,6.46,4.78,6.46,4.78c0,0-.29.24-.39.77,0,0-3.39-1.88-4.02-1.22-.32-1.17,1.07-1.32,3.66-.23,2.04-.68,5.72.31,8.71,2.27.79.52,3.68,2.31,5.62,5.6,1.2,1.83,1.52,3.9,1.52,3.9M0,2.82l1.55,1.43s-.3-.72.2-1.04c.72-.46,2.35-.43,4.1.31C8.54,1.49,12.78.09,12.78.09c-5.39.24-7.78.81-7.78.81l-1.39.72-2.54.64-1.06.56Z"/></svg>