<svg xmlns="http://www.w3.org/2000/svg" viewBox="0 0 200.42 112.21"><title>Harley Owners Group logo</title><path d="M604.09,506.18c2.57-1.82,2.91-5.5,2.91-5.5l-2.42,0c-13.28-.24-20.41-3.6-20.41-3.6a9.64,9.64,0,0,0,4.09-2.07l-1.83-.68c-6-2.26-16.29-7.57-16.29-7.57a13.72,13.72,0,0,0,3.59-2.18s-9.72-3.76-15.59-8.34a8.17,8.17,0,0,0,2.34-1.28l-1.36-.76c-.08,0-7.86-4.42-11.32-7.32-5.37-4.51-11.45-9.61-18-9.61a12.24,12.24,0,0,0-7,2.26,8.35,8.35,0,0,0-3.9,7.3,31.65,31.65,0,0,0-10.23-1.64c-1.4,0-2.26.09-2.26.09l-1.32.13a8.29,8.29,0,0,0-3.8-5.87,12.24,12.24,0,0,0-7-2.26c-6.56,0-12.64,5.1-18,9.61-3.45,2.9-11.24,7.28-11.32,7.32l-1.36.76a8.13,8.13,0,0,0,2.35,1.28c-5.87,4.58-15.59,8.34-15.59,8.34a13.72,13.72,0,0,0,3.59,2.18s-10.3,5.3-16.29,7.57l-1.83.68a9.65,9.65,0,0,0,4.09,2.07s-7.13,3.35-20.41,3.6l-2.42,0s.33,3.68,2.9,5.5l-6.63-.71s.51,10.91,13.69,10.91c1.12,0,2-.17,3.26-.29a12.21,12.21,0,0,0-2.88,3.29,12.08,12.08,0,0,0,7.38,2.62,24.07,24.07,0,0,0,9.07-2,14.69,14.69,0,0,0-.59,1.35l-1.15,3.26a22.5,22.5,0,0,0,14.33-4.84c-.06.29-.11.57-.16.85l-.5,3.31s4.54-.6,7.32-2.57l0,10.34c-1.66-.41-11-3-11-3l6,12.9-6.11,8.27,3.42,1.21c3.37,1.19,7,2.39,11,3.41v6.16l2,.52a175.07,175.07,0,0,0,87.13,0l2-.52v-6.16c4-1,14.38-4.61,14.38-4.61l-6.11-8.27,6-12.9s-9.28,2.52-10.92,2.93v-2.13l4.08-6.37a23.91,23.91,0,0,0,3.34.75l-.5-3.31c0-.28-.09-.56-.16-.85a22.51,22.51,0,0,0,14.34,4.84l-1.16-3.26s-.2-.56-.58-1.35a24.06,24.06,0,0,0,9.07,2,12.09,12.09,0,0,0,7.39-2.62,12.23,12.23,0,0,0-2.88-3.29c1.27.12,2.14.29,3.26.29,13.17,0,13.69-10.91,13.69-10.91l-6.63.71" transform="translate(-411.79 -455.89)" style="fill:#fff"/><path d="M604.09,506.18c2.57-1.82,2.91-5.5,2.91-5.5l-2.42,0c-13.28-.24-20.41-3.6-20.41-3.6a9.64,9.64,0,0,0,4.09-2.07l-1.83-.68c-6-2.26-16.29-7.57-16.29-7.57a13.72,13.72,0,0,0,3.59-2.18s-9.72-3.76-15.59-8.34a8.17,8.17,0,0,0,2.34-1.28l-1.36-.76c-.08,0-7.86-4.42-11.32-7.32-5.37-4.51-11.45-9.61-18-9.61a12.24,12.24,0,0,0-7,2.26,8.35,8.35,0,0,0-3.9,7.3,31.65,31.65,0,0,0-10.23-1.64c-1.4,0-2.26.09-2.26.09l-1.32.13a8.29,8.29,0,0,0-3.8-5.87,12.24,12.24,0,0,0-7-2.26c-6.56,0-12.64,5.1-18,9.61-3.45,2.9-11.24,7.28-11.32,7.32l-1.36.76a8.13,8.13,0,0,0,2.35,1.28c-5.87,4.58-15.59,8.34-15.59,8.34a13.72,13.72,0,0,0,3.59,2.18s-10.3,5.3-16.29,7.57l-1.83.68a9.65,9.65,0,0,0,4.09,2.07s-7.13,3.35-20.41,3.6l-2.42,0s.33,3.68,2.9,5.5l-6.63-.71s.51,10.91,13.69,10.91c1.12,0,2-.17,3.26-.29a12.21,12.21,0,0,0-2.88,3.29,12.08,12.08,0,0,0,7.38,2.62,24.07,24.07,0,0,0,9.07-2,14.69,14.69,0,0,0-.59,1.35l-1.15,3.26a22.5,22.5,0,0,0,14.33-4.84c-.06.29-.11.57-.16.85l-.5,3.31s4.54-.6,7.32-2.57l0,10.34c-1.66-.41-11-3-11-3l6,12.9-6.11,8.27,3.42,1.21c3.37,1.19,7,2.39,11,3.41v6.16l2,.52a175.07,175.07,0,0,0,87.13,0l2-.52v-6.16c4-1,14.38-4.61,14.38-4.61l-6.11-8.27,6-12.9s-9.28,2.52-10.92,2.93v-2.13l4.08-6.37a23.91,23.91,0,0,0,3.34.75l-.5-3.31c0-.28-.09-.56-.16-.85a22.51,22.51,0,0,0,14.34,4.84l-1.16-3.26s-.2-.56-.58-1.35a24.06,24.06,0,0,0,9.07,2,12.09,12.09,0,0,0,7.39-2.62,12.23,12.23,0,0,0-2.88-3.29c1.27.12,2.14.29,3.26.29,13.17,0,13.69-10.91,13.69-10.91l-6.63.71" transform="translate(-411.79 -455.89)" style="fill:none;stroke:#fff;stroke-miterlimit:10;stroke-width:2.8289999961853027px"/><path d="M604.09,506.18c2.57-1.82,2.91-5.5,2.91-5.5l-2.42,0c-13.28-.24-20.41-3.6-20.41-3.6a9.64,9.64,0,0,0,4.09-2.07l-1.83-.68c-6-2.26-16.29-7.57-16.29-7.57a13.72,13.72,0,0,0,3.59-2.18s-9.72-3.76-15.59-8.34a8.17,8.17,0,0,0,2.34-1.28l-1.36-.76c-.08,0-7.86-4.42-11.32-7.32-5.37-4.51-11.45-9.61-18-9.61a12.24,12.24,0,0,0-7,2.26,8.35,8.35,0,0,0-3.9,7.3,31.65,31.65,0,0,0-10.23-1.64c-1.4,0-2.26.09-2.26.09l-1.32.13a8.29,8.29,0,0,0-3.8-5.87,12.24,12.24,0,0,0-7-2.26c-6.56,0-12.64,5.1-18,9.61-3.45,2.9-11.24,7.28-11.32,7.32l-1.36.76a8.13,8.13,0,0,0,2.35,1.28c-5.87,4.58-15.59,8.34-15.59,8.34a13.72,13.72,0,0,0,3.59,2.18s-10.3,5.3-16.29,7.57l-1.83.68a9.65,9.65,0,0,0,4.09,2.07s-7.13,3.35-20.41,3.6l-2.42,0s.33,3.68,2.9,5.5l-6.63-.71s.51,10.91,13.69,10.91c1.12,0,2-.17,3.26-.29a12.21,12.21,0,0,0-2.88,3.29,12.08,12.08,0,0,0,7.38,2.62,24.07,24.07,0,0,0,9.07-2,14.69,14.69,0,0,0-.59,1.35l-1.15,3.26a22.5,22.5,0,0,0,14.33-4.84c-.06.29-.11.57-.16.85l-.5,3.31s4.54-.6,7.32-2.57l0,10.34c-1.66-.41-11-3-11-3l6,12.9-6.11,8.27,3.42,1.21c3.37,1.19,7,2.39,11,3.41v6.16l2,.52a175.07,175.07,0,0,0,87.13,0l2-.52v-6.16c4-1,14.38-4.61,14.38-4.61l-6.11-8.27,6-12.9s-9.28,2.52-10.92,2.93v-2.13l4.08-6.37a23.91,23.91,0,0,0,3.34.75l-.5-3.31c0-.28-.09-.56-.16-.85a22.51,22.51,0,0,0,14.34,4.84l-1.16-3.26s-.2-.56-.58-1.35a24.06,24.06,0,0,0,9.07,2,12.09,12.09,0,0,0,7.39-2.62,12.23,12.23,0,0,0-2.88-3.29c1.27.12,2.14.29,3.26.29,13.17,0,13.69-10.91,13.69-10.91l-6.63.71" transform="translate(-411.79 -455.89)"/><path d="M546.87,477.16s-2.41-3.75-4.44-5c0,0,1.9,3.52,4.44,5" transform="translate(-411.79 -455.89)"/><path d="M477.22,477.16s2.41-3.75,4.44-5c0,0-1.9,3.52-4.44,5" transform="translate(-411.79 -455.89)"/><path d="M520.86,484.79l1.41,1.36-2-.48a7.7,7.7,0,0,1,3.72,5.17,13.78,13.78,0,0,1-4.38-1.23,15.5,15.5,0,0,1,.31,2.94,7.23,7.23,0,0,1-3.63-2.5l-2,2.85s-1.45-1-1.45-4.16L509.25,492a9.36,9.36,0,0,1-.09-4.86l-4.43,3.2a8.91,8.91,0,0,1,1.58-6.22s-4.27,1.55-5.6,2.89c0,0-.13-3.33,3.42-7.49a21.89,21.89,0,0,0-7,2.54s.22-2.67,5.3-6.79a26.8,26.8,0,0,0-5.91,1.84s2.17-6.82,11.24-7.87a6.74,6.74,0,0,1-1.16-1.64s9.94-1,16.33,4a3.59,3.59,0,0,1-.92-2s8.1,3.26,11.12,10c0,0-5.78,1.58-8.36-1.84a10.63,10.63,0,0,0-4.12-.26s.26,1,2.19,1.36c0,0-.18,2.45,2.67,2.15l2.15-.23v.12a29,29,0,0,0-6.84,3.92" transform="translate(-411.79 -455.89)" style="fill:#fff"/><path d="M524.38,483.48c.82-.18,5.35,1.33,7.69,3.29,1.54,1.3,1.06,1.52.49,3.87,0,0,4.78-3.41,3.83-6.2-.55-1.64-2.76-4.11-3.91-4a21.55,21.55,0,0,0-8.1,3" transform="translate(-411.79 -455.89)" style="fill:#ce960d"/><path d="M529.16,486.67l-.2,3-5.52-5.61c-.52.32-1.2.84-1.2.84l1.69,1.83,5.74,5.41.39-4.53a3.33,3.33,0,0,0-.9-.94" transform="translate(-411.79 -455.89)" style="fill:#ce960d"/><path d="M532.34,479.37a2.31,2.31,0,0,1-1.33-1.54s.68-.26,1.33,1.54" transform="translate(-411.79 -455.89)"/><path d="M531.12,478.89a1.8,1.8,0,0,1-1.25-1s.48-.3,1.25,1" transform="translate(-411.79 -455.89)"/><path d="M530.65,477.78a1.84,1.84,0,0,1-1.22-1s.45-.28,1.22,1" transform="translate(-411.79 -455.89)"/><path d="M531.29,481.66l-1.57.52a.06.06,0,0,0,0,.08.06.06,0,0,0,.06,0l1.63-.14a.25.25,0,0,0,.22-.27.24.24,0,0,0-.25-.24h-.05" transform="translate(-411.79 -455.89)"/><path d="M508.27,480.4a1.54,1.54,0,0,0-.64.55,1.48,1.48,0,0,0-.27.8,1.59,1.59,0,0,0,.9-1.34" transform="translate(-411.79 -455.89)"/><path d="M507,480.84a2.39,2.39,0,1,0-.17,1,2.17,2.17,0,0,0,.17-1" transform="translate(-411.79 -455.89)"/><path d="M505.86,481.12a4.75,4.75,0,0,0-.94,2.71,4.27,4.27,0,0,0,.68-1.29,4.33,4.33,0,0,0,.26-1.43" transform="translate(-411.79 -455.89)"/><path d="M504.55,482.21a2.94,2.94,0,0,0-.55,1.06,2.87,2.87,0,0,0-.13,1.19,3.22,3.22,0,0,0,.68-2.24" transform="translate(-411.79 -455.89)"/><path d="M503.24,483.3a2.21,2.21,0,0,0-.52.89.53.53,0,1,0,.42.13,2.21,2.21,0,0,0,.1-1" transform="translate(-411.79 -455.89)"/><path d="M505.26,477.57a1.59,1.59,0,0,0-1.39.81,1.45,1.45,0,0,0,.81-.22,1.48,1.48,0,0,0,.58-.6" transform="translate(-411.79 -455.89)"/><path d="M503.62,477.55a1.72,1.72,0,0,0-1,1.36,1.55,1.55,0,0,0,.67-.55,1.58,1.58,0,0,0,.32-.81" transform="translate(-411.79 -455.89)"/><path d="M502.63,477.55a3.47,3.47,0,0,0-1,.86.66.66,0,1,0,1-.86" transform="translate(-411.79 -455.89)"/><path d="M501.28,478a3.61,3.61,0,0,0-.93,1,3.57,3.57,0,0,0-.56,1.2,4,4,0,0,0,1.49-2.16" transform="translate(-411.79 -455.89)"/><path d="M499.59,479.18a1.48,1.48,0,0,0-.6.58,1.45,1.45,0,0,0-.22.81,1.59,1.59,0,0,0,.82-1.39" transform="translate(-411.79 -455.89)"/><path d="M525.08,480.12a.16.16,0,0,0-.19-.07h0a.44.44,0,0,1-.34,0,.39.39,0,0,1-.21-.25.36.36,0,0,1,0-.28.33.33,0,0,1,.21-.18l.06,0a2,2,0,0,1-.21-.28,2.11,2.11,0,0,1-.1-.21h0a.91.91,0,0,0-.42.52.86.86,0,0,0,.07.66.83.83,0,0,0,.48.39.79.79,0,0,0,.6-.06.15.15,0,0,0,.06-.21" transform="translate(-411.79 -455.89)" style="fill:#ce960d"/><path d="M475.19,556.26v-3.54l-1.19-.26c0,1.19,0,2.36,0,3.54l-1.08-.23V547.9l1.08.23q0,1.66,0,3.32l1.19.25v-3.32l1.08.22v7.88l-1.08-.22" transform="translate(-411.79 -455.89)" style="fill:#ce960d"/><path d="M479.82,557.16l-.17-1.27-1.29-.24c0,.4-.11.8-.16,1.2l-1.13-.22q.68-3.81,1.35-7.62l1.19.22,1.35,8.12-1.13-.2m-.7-5.19c0-.37-.06-.75-.08-1.12H479c0,.36-.05.72-.09,1.09-.13.92-.26,1.83-.39,2.74l1,.19c-.12-1-.25-1.92-.38-2.88" transform="translate(-411.79 -455.89)" style="fill:#ce960d"/><path d="M484.29,557.91l-.9-3.69-.55-.09v3.54l-1.08-.18v-7.87L484,550a1.29,1.29,0,0,1,.77.44,1.33,1.33,0,0,1,.32.84c0,.63,0,1.27,0,1.9a1,1,0,0,1-.31.74.89.89,0,0,1-.4.18l1,4-1.14-.17m-.25-6.62a.35.35,0,0,0-.27-.32l-.93-.15v2.31l.91.15A.26.26,0,0,0,484,553Z" transform="translate(-411.79 -455.89)" style="fill:#ce960d"/><path d="M486.47,558.24q0-3.94,0-7.88l1.09.15v6.87l1.63.21v1l-2.72-.37" transform="translate(-411.79 -455.89)" style="fill:#ce960d"/><path d="M489.93,558.69v-7.87l2.73.31v1L491,552v2.31l1.33.15v1l-1.33-.15v2.53l1.64.19v1l-2.73-.32" transform="translate(-411.79 -455.89)" style="fill:#ce960d"/><path d="M494.27,559.17v-3.55l-1.36-4.46,1.1.11.6,2.37.2.74h.06l.19-.7.61-2.25,1,.09-1.36,4.21v3.54l-1.09-.11" transform="translate(-411.79 -455.89)" style="fill:#ce960d"/><path d="M499.91,559.65a1.12,1.12,0,0,1-.77-.39,1.2,1.2,0,0,1-.32-.81v-5.63a1,1,0,0,1,.32-.76,1,1,0,0,1,.77-.29l1.21.08a1.12,1.12,0,0,1,.77.37,1.14,1.14,0,0,1,.33.82q0,2.82,0,5.63a1,1,0,0,1-.32.77,1,1,0,0,1-.78.29l-1.21-.08m1.21-6.51a.32.32,0,0,0-.28-.3l-.65,0a.27.27,0,0,0-.28.27v5.29a.32.32,0,0,0,.28.3l.65,0a.26.26,0,0,0,.28-.26Z" transform="translate(-411.79 -455.89)" style="fill:#ce960d"/><path d="M506.74,560l-.6-4.64c0-.37-.06-.74-.09-1.11H506c0,.36-.06.73-.09,1.1-.21,1.53-.42,3.07-.63,4.6l-1.09,0q-.6-4-1.2-7.93l1.15.06c.18,1.58.35,3.16.53,4.74,0,.37,0,.74.05,1.11h.07c0-.37.08-.73.12-1.1l.57-4.7,1.08,0c.2,1.58.39,3.16.58,4.74,0,.37.08.74.12,1.1h.07c0-.37,0-.74.05-1.1l.52-4.71,1.16,0L507.84,560l-1.1,0" transform="translate(-411.79 -455.89)" style="fill:#ce960d"/><path d="M512.58,560.07l-1.4-4.5q-.14-.56-.26-1.13h-.07q.09,1.6.19,3.2c0,.81,0,1.62,0,2.43h-1.1v-7.88H511l1.41,4.5.25,1.13h.08l-.2-3.22v-2.41h1.1v7.88h-1.1" transform="translate(-411.79 -455.89)" style="fill:#ce960d"/><path d="M515.1,560v-7.87l2.74-.06v1l-1.64,0v2.31l1.34,0v1l-1.34,0V559l1.64,0v1c-.91,0-1.83,0-2.74.06" transform="translate(-411.79 -455.89)" style="fill:#ce960d"/><path d="M521.42,559.83l-.91-3.5-.55,0v3.54l-1.1,0v-7.88l2.31-.1a1,1,0,0,1,1.08,1.07v1.9a1.11,1.11,0,0,1-.71,1.08c.34,1.25.68,2.5,1,3.76l-1.15.06m-.25-6.57a.28.28,0,0,0-.28-.27l-.93,0v2.3l.92,0a.33.33,0,0,0,.29-.31Z" transform="translate(-411.79 -455.89)" style="fill:#ce960d"/><path d="M524.47,559.65a1,1,0,0,1-.77-.28,1,1,0,0,1-.33-.78c0-.38,0-.75,0-1.13l1.1-.07v1a.26.26,0,0,0,.28.26l.65,0a.32.32,0,0,0,.27-.3V557a.62.62,0,0,0-.27-.53l-.94-.58c-.56-.34-1.08-.69-1.09-1.47q0-.71,0-1.42a1.18,1.18,0,0,1,.33-.82,1.12,1.12,0,0,1,.77-.38l1.21-.08a1,1,0,0,1,.78.28,1,1,0,0,1,.32.76v1.13l-1.09.09v-1a.27.27,0,0,0-.27-.26l-.65,0a.32.32,0,0,0-.28.3v1.07a.61.61,0,0,0,.28.54l.91.53c.57.34,1.11.72,1.11,1.52v1.63a1.22,1.22,0,0,1-.32.81,1.13,1.13,0,0,1-.78.39l-1.21.09" transform="translate(-411.79 -455.89)" style="fill:#ce960d"/><path d="M530.5,559.14a1,1,0,0,1-.75-.24,1,1,0,0,1-.34-.78V552.5a1.26,1.26,0,0,1,.31-.82,1.24,1.24,0,0,1,.78-.41l1.2-.13a.93.93,0,0,1,.8.27,1,1,0,0,1,.3.73v1.13l-1.09.12v-1a.26.26,0,0,0-.27-.25l-.65.07a.33.33,0,0,0-.28.31v5.29a.25.25,0,0,0,.28.25l.65-.07a.33.33,0,0,0,.27-.31v-2.19l-.66.06c0-.33,0-.67,0-1l1.75-.19v3.37a1.28,1.28,0,0,1-.35.87,1.24,1.24,0,0,1-.74.37l-1.2.12" transform="translate(-411.79 -455.89)" style="fill:#ce960d"/><path d="M536.61,558.42q-.46-1.71-.9-3.42l-.55.07v3.54l-1.09.13v-7.88l2.3-.29a1,1,0,0,1,.76.22,1,1,0,0,1,.32.76v1.9a1.23,1.23,0,0,1-.71,1.13l1,3.68-1.14.15m-.25-6.55a.25.25,0,0,0-.27-.25l-.93.12v2.31l.91-.12a.36.36,0,0,0,.28-.33Z" transform="translate(-411.79 -455.89)" style="fill:#ce960d"/><path d="M539.77,558a.91.91,0,0,1-.77-.23,1,1,0,0,1-.32-.74v-5.62a1.29,1.29,0,0,1,.32-.83,1.21,1.21,0,0,1,.77-.45l1.2-.19a.89.89,0,0,1,.76.2.92.92,0,0,1,.33.74q0,2.81,0,5.62a1.28,1.28,0,0,1-.32.84,1.19,1.19,0,0,1-.77.46l-1.2.19m1.2-6.77a.24.24,0,0,0-.27-.24l-.65.1a.36.36,0,0,0-.27.32v5.29a.24.24,0,0,0,.27.24l.65-.1a.35.35,0,0,0,.27-.33Z" transform="translate(-411.79 -455.89)" style="fill:#ce960d"/><path d="M544.39,557.2a.89.89,0,0,1-.77-.2,1,1,0,0,1-.32-.73v-6.75l1.09-.19v6.58a.23.23,0,0,0,.27.23l.65-.12a.37.37,0,0,0,.27-.32v-6.6l1.09-.2v6.75a1.33,1.33,0,0,1-.31.85,1.28,1.28,0,0,1-.77.48l-1.19.22" transform="translate(-411.79 -455.89)" style="fill:#ce960d"/><path d="M548,556.51q0-3.93,0-7.88l2.28-.47a.9.9,0,0,1,.75.16.92.92,0,0,1,.31.73v2.08a1.41,1.41,0,0,1-.31.87,1.36,1.36,0,0,1-.77.49l-1.19.25v3.54l-1.08.22m2.27-7.05a.22.22,0,0,0-.27-.22l-.92.19v2.3l.91-.19a.39.39,0,0,0,.28-.35Z" transform="translate(-411.79 -455.89)" style="fill:#ce960d"/><path d="M547.66,526.15l1.56,2.43v8.65a9.9,9.9,0,0,1-4,1.42c-7.8,0-9.2-6.75-9.2-12.83s1.81-12.43,9.2-12.43a12.1,12.1,0,0,1,8.49,3.68l2.13,1.91v-6.62a17.22,17.22,0,0,0-9.51-3.63c-.43,0-.87,0-1.31,0a17.25,17.25,0,0,0-7.36,1.49,17.47,17.47,0,0,0-9.25,10.53,17.46,17.46,0,0,0-33.22.13v-9l1.55-2.43H485.51l1.58,2.42v11.53H474.75V511.92l1.55-2.43H465.08l1.58,2.42v28.8l-1.6,2.39h11.24l-1.54-2.39V529.13h12.34v11.58l-1.6,2.39h11.24l-1.54-2.39V531.3a17.32,17.32,0,0,0,33.24.06,17.45,17.45,0,0,0,4,6.75A17,17,0,0,0,545,543h12.26l0-14.44,1.56-2.43H547.66" transform="translate(-411.79 -455.89)"/><path d="M540.35,546.17a21.79,21.79,0,0,1-2.7-.71,172.17,172.17,0,0,1-25.71,1.94q-7.69,0-15.35-.69H487a174.33,174.33,0,0,0,53.38-.53" transform="translate(-411.79 -455.89)" style="fill:#ce960d"/><path d="M554.27,558.27a172.73,172.73,0,0,1-84.67,0V546.62h-1.13v12.53l.43.11a173.09,173.09,0,0,0,86.08,0l.43-.11V546.62h-1.14v11.65" transform="translate(-411.79 -455.89)" style="fill:#ce960d"/><path d="M545.57,525l2.5,3.9v7.64a7.43,7.43,0,0,1-2.87,1c-5.5,0-8.06-3.72-8.06-11.69,0-7.49,2.71-11.3,8.06-11.3a11,11,0,0,1,7.73,3.39l4,3.61v-9.72l-.43-.34a18.37,18.37,0,0,0-10.14-3.88c-.32,0-.65,0-1,0H545a18.4,18.4,0,0,0-7.84,1.6,18.63,18.63,0,0,0-8.77,8.55,18.65,18.65,0,0,0-31-3.34,1,1,0,0,1-1.07.2v-2.34l2.49-3.9H483.4l2.55,3.9v10H475.89v-10l2.49-3.9H463l2.55,3.9v28.11l-2.6,3.88h15.46l-2.49-3.86V530.27H486v10.09l-2.6,3.88h15.46l-2.49-3.86v-4a18.33,18.33,0,0,0,32.12-2,18.7,18.7,0,0,0,3.22,4.53A18,18,0,0,0,545,544.16h13.4l0-15.25,2.5-3.9H545.57m11.71,3.57V543H545a17,17,0,0,1-12.54-4.92,17.45,17.45,0,0,1-4-6.75,17.32,17.32,0,0,1-33.24-.06v9.42l1.54,2.39H485.48l1.6-2.39V529.13H474.75v11.58l1.54,2.39H465.06l1.6-2.39v-28.8l-1.58-2.42H476.3l-1.56,2.43v11.52h12.34V511.91l-1.58-2.42h11.23l-1.55,2.43v9a17.46,17.46,0,0,1,33.22-.13,17.47,17.47,0,0,1,9.25-10.53,17.24,17.24,0,0,1,7.36-1.49c.44,0,.88,0,1.31,0a17.21,17.21,0,0,1,9.51,3.63V519l-2.13-1.91a12.1,12.1,0,0,0-8.49-3.68c-7.38,0-9.2,6.35-9.2,12.43s1.4,12.83,9.2,12.83a9.92,9.92,0,0,0,4-1.42v-8.65l-1.56-2.43h11.19Z" transform="translate(-411.79 -455.89)" style="fill:#ce960d"/><path d="M547.66,526.15l1.56,2.43v8.65a9.9,9.9,0,0,1-4,1.42c-7.8,0-9.2-6.75-9.2-12.83s1.81-12.43,9.2-12.43a12.1,12.1,0,0,1,8.49,3.68l2.13,1.91v-6.62a17.22,17.22,0,0,0-9.51-3.63c-.43,0-.87,0-1.31,0a17.25,17.25,0,0,0-7.36,1.49,17.47,17.47,0,0,0-9.25,10.53,17.46,17.46,0,0,0-33.22.13v-9l1.55-2.43H485.51l1.58,2.42v11.53H474.75V511.92l1.55-2.43H465.08l1.58,2.42v28.8l-1.6,2.39h11.24l-1.54-2.39V529.13h12.34v11.58l-1.6,2.39h11.24l-1.54-2.39V531.3a17.32,17.32,0,0,0,33.24.06,17.45,17.45,0,0,0,4,6.75A17,17,0,0,0,545,543h12.26l0-14.44,1.56-2.43H547.66" transform="translate(-411.79 -455.89)" style="fill:#fff"/><path d="M461.78,542.07s-1.06-2.37-3.81-8.25c1.9.51,3.56.95,5.16,1.33V534c-1.85-.45-3.77-1-6-1.58l-1.18-.32s4.07,8.73,4.6,9.9c-.61.85-5.15,7-5.15,7l.72.25c3.17,1.12,6.56,2.25,10.27,3.22v-1.17c-3.37-.9-6.45-1.91-9.16-2.86,3.37-4.56,4.59-6.35,4.59-6.35" transform="translate(-411.79 -455.89)" style="fill:#ce960d"/><path d="M563.35,542c.53-1.17,4.6-9.9,4.6-9.9l-1.18.32c-2.22.61-4.1,1.11-5.91,1.55v1.17c1.56-.38,3.18-.8,5-1.3-2.75,5.89-3.81,8.25-3.81,8.25s1.22,1.78,4.59,6.35c-2.71.95-5.79,2-9.16,2.86v1.17c3.7-1,7.09-2.1,10.26-3.22l.72-.25s-4.53-6.14-5.15-7" transform="translate(-411.79 -455.89)" style="fill:#ce960d"/><path d="M538.3,506.13a18,18,0,0,0-1.7-7.71s-1.68,4.56,1.7,7.71" transform="translate(-411.79 -455.89)" style="fill:#825124"/><path d="M554.36,476.83h0a9.39,9.39,0,0,1-1.52.12,10.41,10.41,0,0,1-2.31-.27l10.75,6.9c-7-2.66-10.73-5.71-12.43-7.41l-.24-.09A6.63,6.63,0,0,1,549,478v1.55c11.7,10.57,19.37,5.31,19.37,5.31-4.41-.88-14-8-14-8" transform="translate(-411.79 -455.89)" style="fill:#825124"/><path d="M547.45,479.25a12.5,12.5,0,0,1-3.06-1.18l8,9.28a24.57,24.57,0,0,1-9.37-9.64,13,13,0,0,1-.46,1.69l-.35,1c12.52,16.11,19,10,19,10a32.16,32.16,0,0,1-13.83-11.11" transform="translate(-411.79 -455.89)" style="fill:#825124"/><path d="M541.19,480.24a4.43,4.43,0,0,1-1.38-.51l6,10.33a23.93,23.93,0,0,1-6.9-10.17,3.9,3.9,0,0,1-.75,1.07l-.63.63c8.21,15.55,13.7,14.35,13.7,14.35.54-4.7-7.4-11-10-15.7" transform="translate(-411.79 -455.89)" style="fill:#825124"/><path d="M556.08,492.64h0a13,13,0,0,1-3.57-1.21l8.59,9.64a85.23,85.23,0,0,1-9.42-8.88,8.91,8.91,0,0,1,.76,2.33h0c8.49,12,12.75,10.73,12.75,10.73-2.35-6.37-9.12-12.61-9.12-12.61" transform="translate(-411.79 -455.89)" style="fill:#825124"/><path d="M562.87,491a7.91,7.91,0,0,1-1.7,1l8.73,7.28c-3.87-1.44-8.11-5.17-9.91-6.85a8.22,8.22,0,0,1-2.35.36c10.69,11.84,16.17,8.94,16.17,8.94-3.43-5.19-11-10.7-11-10.7" transform="translate(-411.79 -455.89)" style="fill:#825124"/><path d="M566.05,487.11a13.06,13.06,0,0,1-3,.34h-.44l11.79,6.73c-5-1.38-10.25-4.67-13.85-6.71-.41-.05-2.09-.36-2.09-.36l3.27,2.07,1.68,1.13s11,9.36,18.93,5c0,0-9.95-3.93-16.3-8.15" transform="translate(-411.79 -455.89)" style="fill:#825124"/><path d="M579.36,497.65a12.71,12.71,0,0,1-2.43.24,19.49,19.49,0,0,1-3.87-.67,68.07,68.07,0,0,0,20,6.86,50.21,50.21,0,0,1-20.18-5.72,21.61,21.61,0,0,1,2.11,2.79l.56,1.11s3.25,2.67,13.84,4.5c13.36,2.3,14.06-3.73,14.06-3.73-11.51.16-21.2-3.51-24.05-5.38" transform="translate(-411.79 -455.89)" style="fill:#825124"/><path d="M573.83,503.07a6.26,6.26,0,0,1-1.49.22c2.5,1.53,9,5.21,15.68,6.41,0,0-7.27.65-18.82-6.85a18.46,18.46,0,0,1-5.08-2.54c10,10,23.91,13.55,32.73,13.55s10.5-5.58,10.5-5.58c-19.7,3.23-33.52-5.22-33.52-5.22" transform="translate(-411.79 -455.89)" style="fill:#825124"/><path d="M582.35,512.6c-6.67-1.86-14.13-6.65-16.44-9q.26.58.47,1.16l.47,1.27-.31.09c4,3.07,13.89,8.39,13.89,8.39-6.84-1.69-14.88-8.1-14.88-8.1a2.63,2.63,0,0,1-.76.09,5.45,5.45,0,0,1-1.39-.2s1.29,2.62,13,9.09S593,518.68,593,518.68c-.73-1.54-4-4.21-10.68-6.08" transform="translate(-411.79 -455.89)" style="fill:#825124"/><path d="M572.55,514.76c-4.12-2.55-8.92-5.79-11.53-9.47a15.67,15.67,0,0,1-1.31-.89,76.7,76.7,0,0,0,11.08,11.85A45.77,45.77,0,0,1,558,503.58a21.7,21.7,0,0,1,.86,2.39l.38,1.32C569.39,521.87,578.33,522,578.33,522a15.6,15.6,0,0,0-5.78-7.25" transform="translate(-411.79 -455.89)" style="fill:#825124"/><path d="M534.87,491a19.11,19.11,0,0,1,1.82,6.23s-3-3-1.82-6.23" transform="translate(-411.79 -455.89)" style="fill:#825124"/><path d="M533.12,494a19.1,19.1,0,0,1,1.81,6.23s-3-3-1.81-6.23" transform="translate(-411.79 -455.89)" style="fill:#825124"/><path d="M534.06,500.71a8.13,8.13,0,0,1,1.49,5,6.78,6.78,0,0,1-1.49-5" transform="translate(-411.79 -455.89)" style="fill:#825124"/><path d="M485.79,505.89a21.44,21.44,0,0,1,2-8s1.21,4.61-2,8" transform="translate(-411.79 -455.89)" style="fill:#825124"/><path d="M469.73,476.83h0a9.4,9.4,0,0,0,1.52.12,10.39,10.39,0,0,0,2.3-.27l-10.75,6.9c7-2.66,10.73-5.71,12.43-7.41l.24-.09a6.56,6.56,0,0,0-.36,1.91v1.55c-11.7,10.57-19.37,5.31-19.37,5.31,4.41-.88,14-8,14-8" transform="translate(-411.79 -455.89)" style="fill:#825124"/><path d="M476.65,479.25a12.49,12.49,0,0,0,3.06-1.18l-8,9.28a24.53,24.53,0,0,0,9.37-9.64,13.47,13.47,0,0,0,.46,1.69l.34,1c-12.52,16.11-19,10-19,10a32.17,32.17,0,0,0,13.84-11.11" transform="translate(-411.79 -455.89)" style="fill:#825124"/><path d="M482.9,480.24a4.42,4.42,0,0,0,1.38-.51l-6,10.33a23.89,23.89,0,0,0,6.9-10.17,3.88,3.88,0,0,0,.75,1.07l.63.63c-8.2,15.55-13.7,14.35-13.7,14.35-.54-4.7,7.4-11,10-15.7" transform="translate(-411.79 -455.89)" style="fill:#825124"/><path d="M487.9,480.93h0a10.4,10.4,0,0,0,1.34-.93c0,.15.08.3.13.45l0,.15L485,491c2.26-2.27,4.78-9.23,4.78-9.23l1.29-.57c-1.91,5.18-5.24,16.28-9.84,16.28,0-5.29,5.48-13.53,6.64-16.58" transform="translate(-411.79 -455.89)" style="fill:#825124"/><path d="M461.22,491a8,8,0,0,0,1.7,1l-8.73,7.28c3.87-1.44,8.11-5.17,9.9-6.85a8.21,8.21,0,0,0,2.35.36c-10.69,11.84-16.17,8.94-16.17,8.94,3.43-5.19,11-10.7,11-10.7" transform="translate(-411.79 -455.89)" style="fill:#825124"/><path d="M458,487.11a13.07,13.07,0,0,0,3,.34h.44l-11.79,6.73c5-1.38,10.25-4.67,13.85-6.71.4-.05,2.09-.36,2.09-.36l-3.27,2.07-1.67,1.13s-11,9.36-18.93,5c0,0,9.95-3.93,16.3-8.15" transform="translate(-411.79 -455.89)" style="fill:#825124"/><path d="M444.73,497.65a12.67,12.67,0,0,0,2.43.24,19.53,19.53,0,0,0,3.87-.67,68.08,68.08,0,0,1-20,6.86,50.2,50.2,0,0,0,20.18-5.72,21.59,21.59,0,0,0-2.1,2.79l-.56,1.11s-3.25,2.67-13.84,4.5c-13.36,2.3-14.06-3.73-14.06-3.73,11.51.16,21.2-3.51,24.06-5.38" transform="translate(-411.79 -455.89)" style="fill:#825124"/><path d="M450.27,503.07a6.24,6.24,0,0,0,1.49.22c-2.5,1.53-9,5.21-15.68,6.41,0,0,7.27.65,18.82-6.85a18.44,18.44,0,0,0,5.08-2.54c-10,10-23.91,13.55-32.74,13.55s-10.5-5.58-10.5-5.58c19.7,3.23,33.52-5.22,33.52-5.22" transform="translate(-411.79 -455.89)" style="fill:#825124"/><path d="M489.78,490.36a19.11,19.11,0,0,0-1.82,6.23s3-3,1.82-6.23" transform="translate(-411.79 -455.89)" style="fill:#825124"/><path d="M490.6,495.08a16.26,16.26,0,0,0-1.45,5.16,4.37,4.37,0,0,0,1.45-5.16" transform="translate(-411.79 -455.89)" style="fill:#825124"/><path d="M490,500.71a8.14,8.14,0,0,0-1.49,5,6.79,6.79,0,0,0,1.49-5" transform="translate(-411.79 -455.89)" style="fill:#825124"/><path d="M556.07,475a11.47,11.47,0,0,1-8.77-3.58,23.2,23.2,0,0,0,5.69,2.48c-7.69-4.32-18.86-19.45-29.05-12.43a6,6,0,0,0-2.87,5.38l1.78.72.17.07c0-.14,0-.27,0-.41a4.69,4.69,0,0,1,.75-2.34,5.74,5.74,0,0,1,1.73-1.61,8.49,8.49,0,0,1,4.21-1.39,12.45,12.45,0,0,1,4.28.59,13.32,13.32,0,0,1,3.69,2.1c1.11.85,2.15,1.77,3.18,2.7a.08.08,0,0,1,0,.1.07.07,0,0,1-.1,0c-1.1-.84-2.21-1.68-3.36-2.42a12.69,12.69,0,0,0-3.66-1.71,12,12,0,0,0-4-.24,7.25,7.25,0,0,0-3.53,1.39,4.31,4.31,0,0,0-1.23,1.26,3.12,3.12,0,0,0-.4,1.61,7.38,7.38,0,0,0,.09,1.17c2.57,1.36,7.16,4.3,9.77,9a6.65,6.65,0,0,0,2.77,2.65c1.42-1.42.68-4.12.68-4.12,1.47,2.74,3.43,3,3.43,3,1-2.84.49-4.31.49-4.31A12.73,12.73,0,0,0,547.7,478c0-1.77-1.9-5-1.9-5,5.76,4.35,10,2.14,10.27,2" transform="translate(-411.79 -455.89)" style="fill:#825124"/><path d="M537.51,487.32l1.56,3.7a13.34,13.34,0,0,1-2-2.94,11.55,11.55,0,0,1-1,1.32c1.8,4.24,4.07,8.11,6.79,8.11,0-3.73-2.72-8.91-4.73-12.72a5,5,0,0,1-.6,2.53" transform="translate(-411.79 -455.89)" style="fill:#825124"/><path d="M498.88,470.89c0-.25.1-.5.15-.75l.21-1a9.62,9.62,0,0,0,.22-1.89,3.17,3.17,0,0,0-.4-1.61,4.31,4.31,0,0,0-1.23-1.26A7.24,7.24,0,0,0,494.3,463a12.06,12.06,0,0,0-4,.24,12.69,12.69,0,0,0-3.66,1.71c-1.16.74-2.27,1.57-3.36,2.42a.07.07,0,0,1-.09-.11c1-.93,2.07-1.86,3.18-2.7a13.31,13.31,0,0,1,3.69-2.1,12.45,12.45,0,0,1,4.28-.59,8.44,8.44,0,0,1,4.2,1.39,5.68,5.68,0,0,1,1.73,1.61,4.68,4.68,0,0,1,.75,2.34,11.05,11.05,0,0,1-.13,2.24v.09a16.9,16.9,0,0,1,2-1c.34-2.49.25-5.07-2.73-7.13-10.19-7-21.36,8.11-29.05,12.43a23.19,23.19,0,0,0,5.69-2.48A11.47,11.47,0,0,1,468,475c.3.17,4.51,2.38,10.27-2,0,0-1.9,3.23-1.9,5a12.74,12.74,0,0,0,5.82-3.33s-.49,1.47.49,4.31c0,0,2-.29,3.43-3,0,0-.74,2.69.68,4.12a7.89,7.89,0,0,0,3.45-3.33,7.94,7.94,0,0,0,.3,3.33,6.48,6.48,0,0,0,3.68-3.08l.29-.71a14.46,14.46,0,0,1,4.33-5.38" transform="translate(-411.79 -455.89)" style="fill:#825124"/><path d="M528.07,485.93a.54.54,0,0,0-.67.56,2.75,2.75,0,0,0-2-1.35l2.71,2.75,0-2" transform="translate(-411.79 -455.89)" style="fill:#825124"/><path d="M501.63,481.18s-8,2-5.09,10.52a14,14,0,0,1,5.09-10.52" transform="translate(-411.79 -455.89)" style="fill:#825124"/><path d="M498.59,477.44a5.81,5.81,0,0,0-3.65,6.12s1.54-4.26,3.65-6.12" transform="translate(-411.79 -455.89)" style="fill:#825124"/><path d="M499,487s-2.18,4.16,0,7c0,0,2.68-3,2.68-5.68l-2,2.18L499,487" transform="translate(-411.79 -455.89)" style="fill:#825124"/><path d="M500.67,492.81s-.16,3.3,1.85,5.23c0,0,1.19-3,.5-4.94l-.91,2.15-1.44-2.43" transform="translate(-411.79 -455.89)" style="fill:#825124"/><path d="M503.75,490.73a4.7,4.7,0,0,0,.28,3,3,3,0,0,0,1.58-2.61l-.95.93-.91-1.3" transform="translate(-411.79 -455.89)" style="fill:#825124"/><path d="M502.88,498.4a5.14,5.14,0,0,0,1.06,3.1s1.29-.85,1-3.17l-.77,1.22-1.3-1.15" transform="translate(-411.79 -455.89)" style="fill:#825124"/><path d="M507.39,496.57a5.13,5.13,0,0,0,1.06,3.1s1.29-.84,1-3.17l-.77,1.22-1.3-1.15" transform="translate(-411.79 -455.89)" style="fill:#825124"/><path d="M504.72,494.3a5.65,5.65,0,0,0,1,3.44s1.45-.87,1.26-3.43l-.9,1.31-1.37-1.32" transform="translate(-411.79 -455.89)" style="fill:#825124"/><path d="M510.19,494.16a4.7,4.7,0,0,0,.58,2.94,3,3,0,0,0,1.31-2.75l-.85,1-1-1.2" transform="translate(-411.79 -455.89)" style="fill:#825124"/><path d="M510.68,498.08a4.71,4.71,0,0,0,.58,2.94,3,3,0,0,0,1.31-2.75l-.85,1-1-1.2" transform="translate(-411.79 -455.89)" style="fill:#825124"/><path d="M505.78,500.73a4.7,4.7,0,0,0,.58,2.94,3,3,0,0,0,1.31-2.75l-.85,1-1-1.2" transform="translate(-411.79 -455.89)" style="fill:#825124"/><path d="M508,492.46a4.71,4.71,0,0,0,.28,3,3,3,0,0,0,1.58-2.61l-.95.93-.91-1.3" transform="translate(-411.79 -455.89)" style="fill:#825124"/><path d="M525.49,499a4,4,0,0,1-1.21,2.24,2.51,2.51,0,0,1-.38-2.56l.44,1,1.15-.72" transform="translate(-411.79 -455.89)" style="fill:#825124"/><path d="M521.73,497.16a5.79,5.79,0,0,1-1.19,3.48s-1.44-1-1.14-3.56l.87,1.38,1.46-1.3" transform="translate(-411.79 -455.89)" style="fill:#825124"/><path d="M524.31,494.75a5.64,5.64,0,0,1-1,3.44s-1.45-.87-1.26-3.43l.9,1.31,1.37-1.32" transform="translate(-411.79 -455.89)" style="fill:#825124"/><path d="M518.66,495a4.24,4.24,0,0,1-.53,2.66,2.67,2.67,0,0,1-1.19-2.49l.77.92.94-1.09" transform="translate(-411.79 -455.89)" style="fill:#825124"/><path d="M518.21,498.6a4.7,4.7,0,0,1-.58,2.94,3,3,0,0,1-1.31-2.75l.85,1,1-1.2" transform="translate(-411.79 -455.89)" style="fill:#825124"/><path d="M523.16,500.93a4.26,4.26,0,0,1-1.09,2.49,2.67,2.67,0,0,1-.62-2.69l.55,1.07,1.15-.86" transform="translate(-411.79 -455.89)" style="fill:#825124"/><path d="M520.88,493a4.69,4.69,0,0,1-.28,3,3,3,0,0,1-1.58-2.6l.95.93.91-1.3" transform="translate(-411.79 -455.89)" style="fill:#825124"/><path d="M501.21,499.16A2.27,2.27,0,0,1,501,501a4.16,4.16,0,0,1-1.71-2l1.32.48.17-.9c-1.42-2.14-3.72-3.66-4.09-6.16a11.91,11.91,0,0,0-.37,2.79,10.77,10.77,0,0,1-1.35-5.9,2.17,2.17,0,0,1-1.09,1.49,3.8,3.8,0,0,1-.31-2.4l.77,1,.65-.67a14,14,0,0,1,.76-3.7,5,5,0,0,0-2,1.74,15.45,15.45,0,0,1,.67-5.78,19.8,19.8,0,0,0-2.67,10.36l.69.84.7-.8a2.38,2.38,0,0,1-1.11,2.19,3.06,3.06,0,0,1-.14-.3c.4,3.27,1.48,6,2,8.22l.71.53.54-1a2.61,2.61,0,0,1-.6,2.63,3.61,3.61,0,0,1-.42-.56,3.93,3.93,0,0,1-.58,2.47,3.42,3.42,0,0,0,3-2.15,3.41,3.41,0,0,0,1.88,2.15,4.61,4.61,0,0,0,.47-4.89,9,9,0,0,0,3,1.36,4.89,4.89,0,0,0-.63-2.81m-8-3,1.71.85.46-1.52c1,2.38-.16,3.65-.16,3.65a5.63,5.63,0,0,1-2-3m3.69,5.8a3.79,3.79,0,0,1-1.35-2l1.15.57.31-1a2.38,2.38,0,0,1-.11,2.45m1.49-2.52a4.16,4.16,0,0,1-1.71-2l1.32.49.22-1.15a2.61,2.61,0,0,1,.17,2.69" transform="translate(-411.79 -455.89)" style="fill:#825124"/><path d="M531.43,497.25s2,2.62,1.35,5.15a5.91,5.91,0,0,1-1.35-5.15" transform="translate(-411.79 -455.89)" style="fill:#825124"/><path d="M557.66,506.33a25.86,25.86,0,0,0-5.27-9.34l-.89.19a2.82,2.82,0,0,1-.56,0l-.51,0,3.17,4.84a11.35,11.35,0,0,1-4.17-5.05,10.5,10.5,0,0,1-3.4-1.86h0c6.81,12,11.62,11.2,11.62,11.2" transform="translate(-411.79 -455.89)" style="fill:#825124"/><path d="M549.74,505.6a31.1,31.1,0,0,0-5.95-10.7,12.18,12.18,0,0,1,.32,2.61v.71l1.92,4.08a19.07,19.07,0,0,1-2.42-3.52h-.77a4.13,4.13,0,0,1-1.15-.16c1.61,3.54,3.32,5.47,4.76,6.52h.12a22.27,22.27,0,0,1,3.17.46" transform="translate(-411.79 -455.89)" style="fill:#825124"/><path d="M540,497.78a8.17,8.17,0,0,1-1-.85l1.12,4.14c-.82-.81-2.66-6-2.66-6,.9,5.46,2.55,8.66,3.78,10.39.46-.07.94-.13,1.41-.17a18.2,18.2,0,0,0-2.69-7.45" transform="translate(-411.79 -455.89)" style="fill:#825124"/><path d="M553,505.83a18.54,18.54,0,0,1-2.6-2.34c.49,1,1,1.85,1.44,2.7a20.73,20.73,0,0,1,2,.79l-.85-1.14" transform="translate(-411.79 -455.89)" style="fill:#825124"/><path d="M559.43,510.62v2.53l2.25,3.1a25.45,25.45,0,0,1-2.25-2.3v2.91c3.52,3.57,5.77,4,5.77,4-.88-5.88-7.33-13.26-7.33-13.26a2.17,2.17,0,0,1-.42,0A6.14,6.14,0,0,1,555,507l.62.86a19.92,19.92,0,0,1,2.48,1.68l1.36,1.08" transform="translate(-411.79 -455.89)" style="fill:#825124"/><path d="M471.65,494.52h0a8.85,8.85,0,0,1,.76-2.33,85.25,85.25,0,0,1-9.42,8.88l8.59-9.64a13,13,0,0,1-3.57,1.21h0s-6.76,6.24-9.12,12.61c0,0,4.26,1.27,12.75-10.73" transform="translate(-411.79 -455.89)" style="fill:#825124"/><path d="M478.06,495.13h0a10.5,10.5,0,0,1-3.4,1.86,11.33,11.33,0,0,1-4.17,5.05l3.17-4.84-.51,0a2.7,2.7,0,0,1-.56,0l-.89-.19a26.12,26.12,0,0,0-5.12,8.9h1.9c2-.88,5.43-3.44,9.58-10.76" transform="translate(-411.79 -455.89)" style="fill:#825124"/><path d="M482.4,498.61a4.16,4.16,0,0,1-1.14.17h-.77a19.14,19.14,0,0,1-2.42,3.52l1.92-4.08v-.71a12.1,12.1,0,0,1,.32-2.61,30.79,30.79,0,0,0-6,11h2.08c1.63-.74,3.92-2.6,6-7.28" transform="translate(-411.79 -455.89)" style="fill:#825124"/><path d="M486.56,495s-1.84,5.23-2.66,6l1.12-4.14a8.17,8.17,0,0,1-1,.85,18.19,18.19,0,0,0-2.75,8.11h1.11c1.24-1.57,3.15-4.85,4.14-10.87" transform="translate(-411.79 -455.89)" style="fill:#825124"/><path d="M458.53,506.47s-8,6.4-14.88,8.1c0,0,9.86-5.32,13.89-8.39l-.31-.09.47-1.27q.21-.58.47-1.16c-2.3,2.3-9.77,7.09-16.44,9s-10,4.53-10.68,6.07c0,0,5,3.24,16.66-3.23,7.14-4,10.39-6.48,11.84-7.83l-.72-1.08-.31-.06" transform="translate(-411.79 -455.89)" style="fill:#825124"/><path d="M464.38,504.4a15.68,15.68,0,0,1-1.31.89c-.14.2-.29.4-.45.6h.59c.39-.48.78-1,1.17-1.49" transform="translate(-411.79 -455.89)" style="fill:#825124"/><path d="M466.08,503.58c-.41.63-1,1.42-1.65,2.3h.83a21.71,21.71,0,0,1,.83-2.3" transform="translate(-411.79 -455.89)" style="fill:#825124"/><path d="M453.31,516.26a69.23,69.23,0,0,0,7.22-7.18l-.37-.56a57.87,57.87,0,0,1-8.62,6.24,15.59,15.59,0,0,0-5.78,7.25s7.29-.12,16.15-10.85l-.88-1.33a40.91,40.91,0,0,1-7.72,6.42" transform="translate(-411.79 -455.89)" style="fill:#825124"/><path d="M463.14,513l-.46-.69c-1.66,2.53-3.36,5.7-3.79,8.52,0,0,1.61-.29,4.23-2.53l0-5.29" transform="translate(-411.79 -455.89)" style="fill:#825124"/><path d="M473.7,503.49a18.63,18.63,0,0,1-2.61,2.34l0,.06h1.38c.42-.76.84-1.56,1.27-2.4" transform="translate(-411.79 -455.89)" style="fill:#825124"/><path d="M480.19,504.53c-.25.28-.5.53-.74.76h0s-.13.21-.34.6h.74l.35-1.36" transform="translate(-411.79 -455.89)" style="fill:#825124"/><path d="M526.94,530.31v-8h-6.3v-.08a1.31,1.31,0,0,1,1.24-1.19v-2.89c-4.52-.31-8.26-1.6-9.94-3.33-1.68,1.73-5.42,3-9.94,3.33V521a1.31,1.31,0,0,1,1.24,1.19.46.46,0,0,1,0,.08H497v8h6v0c0,.6-.81,1.09-1.84,1.12,3,2.76,8.09,6.42,10.81,6.42H512c2.72,0,7.78-3.66,10.81-6.42-1,0-1.83-.52-1.83-1.12v0h6" transform="translate(-411.79 -455.89)" style="fill:#ce960d"/><path d="M503.19,520.19v-1a18.46,18.46,0,0,0,8.76-2.85,18.46,18.46,0,0,0,8.76,2.85v1a2.33,2.33,0,0,0-1.24,2s0,.05,0,.08h-15s0-.05,0-.08a2.33,2.33,0,0,0-1.24-2m22.57,8.94H498.13v-5.65h27.63Zm-5.21,2.74c-3.08,2.55-6.75,4.83-8.53,4.83h-.13c-1.78,0-5.45-2.29-8.54-4.83a2,2,0,0,0,.74-1.53v0h15.72v0a2,2,0,0,0,.74,1.53" transform="translate(-411.79 -455.89)"/><path d="M494.13,510.68a2.23,2.23,0,0,1,1.18-1.44,2.26,2.26,0,0,1,.89-.26,2.88,2.88,0,0,1,1.37.25,2.34,2.34,0,0,1,.29-.63,2.68,2.68,0,0,1,.47-1.77A2.07,2.07,0,0,1,500,506a2.58,2.58,0,0,1,1.93.87,2.2,2.2,0,0,1,1.93-2,2.44,2.44,0,0,1,.66,0,3.28,3.28,0,0,1,2.27,2.6l.15.64-.45.45-.1.11-.11.12-.42.45a2.28,2.28,0,0,0-.22,2.38l.79,1.38a3.17,3.17,0,0,1-1.63.31,3.55,3.55,0,0,1-2.67-1.75,2.88,2.88,0,0,0,.71,1.45l1.16,1.17a4.88,4.88,0,0,1-2.17.84h-.34l-.78.75a2.48,2.48,0,0,1-1.54.67,4.87,4.87,0,0,1-3.82-1.88,3.21,3.21,0,0,1-.74-1.74l-.13-.2a2.74,2.74,0,0,1-.34-2" transform="translate(-411.79 -455.89)"/><path d="M500.13,508a1.81,1.81,0,0,0-1.23.65s-.21-1.44,1.12-1.48c1,0,1.59,1,1.77,1.43-.05.08-.13.22-.18.32a1.62,1.62,0,0,0-1.47-.9" transform="translate(-411.79 -455.89)" style="fill:#ce960d"/><path d="M504.26,506.87a1.77,1.77,0,0,0-1.33.36s.08-1.45,1.39-1.2c.94.18,1.34,1.38,1.45,1.79l-.24.27a1.68,1.68,0,0,0-1.26-1.21" transform="translate(-411.79 -455.89)" style="fill:#ce960d"/><path d="M496.2,510.94a1.94,1.94,0,0,0-.86,1.13,1.27,1.27,0,0,1,.43-1.84c.85-.45,1.86.25,2.17.51,0,.1,0,.26,0,.37a1.56,1.56,0,0,0-1.69-.17" transform="translate(-411.79 -455.89)" style="fill:#ce960d"/><path d="M503,507.66a1.38,1.38,0,0,1,2.3.63,3.48,3.48,0,0,0-.55,4c-1.87.1-3-3.71-1.76-4.62" transform="translate(-411.79 -455.89)" style="fill:#ce960d"/><path d="M498.73,509.2a1.56,1.56,0,0,1,2.73,0,4.23,4.23,0,0,0,.66,4.72c-2,.72-4.43-3.27-3.39-4.7" transform="translate(-411.79 -455.89)" style="fill:#ce960d"/><path d="M495.66,512.47a1.4,1.4,0,0,1,2.2-1A3.61,3.61,0,0,0,500,515c-1.39,1.34-4.7-1-4.34-2.54" transform="translate(-411.79 -455.89)" style="fill:#ce960d"/><path d="M529.57,510.68a2.23,2.23,0,0,0-1.18-1.44,2.27,2.27,0,0,0-.89-.26,2.88,2.88,0,0,0-1.37.25,2.38,2.38,0,0,0-.29-.63,2.69,2.69,0,0,0-.47-1.77,2.07,2.07,0,0,0-1.67-.82,2.58,2.58,0,0,0-1.93.87,2.2,2.2,0,0,0-1.93-2,2.44,2.44,0,0,0-.66,0,3.29,3.29,0,0,0-2.27,2.6l-.15.64.45.45.1.11.11.12.42.45a2.28,2.28,0,0,1,.22,2.38l-.79,1.38a3.16,3.16,0,0,0,1.63.31,3.55,3.55,0,0,0,2.67-1.75,2.89,2.89,0,0,1-.71,1.45l-1.16,1.17a4.87,4.87,0,0,0,2.17.84h.34l.78.75a2.48,2.48,0,0,0,1.53.67,4.87,4.87,0,0,0,3.82-1.88,3.19,3.19,0,0,0,.74-1.74l.13-.2a2.73,2.73,0,0,0,.34-2" transform="translate(-411.79 -455.89)"/><path d="M523.57,508a1.81,1.81,0,0,1,1.23.65s.21-1.44-1.12-1.48c-1,0-1.59,1-1.77,1.43l.18.32a1.62,1.62,0,0,1,1.47-.9" transform="translate(-411.79 -455.89)" style="fill:#ce960d"/><path d="M519.44,506.87a1.77,1.77,0,0,1,1.33.36s-.08-1.45-1.39-1.2c-.93.18-1.34,1.38-1.44,1.79l.24.27a1.68,1.68,0,0,1,1.26-1.21" transform="translate(-411.79 -455.89)" style="fill:#ce960d"/><path d="M527.49,510.94a1.93,1.93,0,0,1,.86,1.13,1.27,1.27,0,0,0-.43-1.84c-.85-.45-1.86.25-2.17.51,0,.1,0,.26,0,.37a1.56,1.56,0,0,1,1.69-.17" transform="translate(-411.79 -455.89)" style="fill:#ce960d"/><path d="M520.71,507.66a1.38,1.38,0,0,0-2.3.63,3.48,3.48,0,0,1,.55,4c1.87.1,3-3.71,1.76-4.62" transform="translate(-411.79 -455.89)" style="fill:#ce960d"/><path d="M525,509.2a1.56,1.56,0,0,0-2.73,0,4.23,4.23,0,0,1-.66,4.72c2,.72,4.43-3.27,3.39-4.7" transform="translate(-411.79 -455.89)" style="fill:#ce960d"/><path d="M528,512.47a1.39,1.39,0,0,0-2.2-1A3.61,3.61,0,0,1,523.7,515c1.39,1.34,4.7-1,4.34-2.54" transform="translate(-411.79 -455.89)" style="fill:#ce960d"/><path d="M559,520.12h-.51v1.4h-.27v-1.4h-.51v-.22H559Zm2.1,1.4h-.27v-1.35h0l-.53,1.35h-.17l-.53-1.35h0v1.35h-.27v-1.61h.41l.48,1.23.47-1.23h.41Z" transform="translate(-411.79 -455.89)" style="fill:#ce960d"/></svg>