<svg id="Layer_1" data-name="Layer 1" xmlns="http://www.w3.org/2000/svg" viewBox="0 0 627.91 213.5"><title>Bottecchia logo - Brandlogos.net</title><path d="M86.54,444h48.1c6,0,10,2.3,12.2,6.8a8.84,8.84,0,0,1-.2,5.8l-.5,1.5c-1.2,3.4-4.3,6.5-9.4,9.1,3.3,2.4,4.3,5.4,3,9.1l-.7,2.1c-1.4,4-5.1,7.4-11.1,10.3a25,25,0,0,1-8.3,2H70.24c-.2,0-.2-.1-.2-.2l16.2-46.3c0-.2.1-.2.3-.2m6.9,28.3-2.5,7.2H119a6.29,6.29,0,0,0,5.2-2.1,5.42,5.42,0,0,0,.9-1.6c.6-1.7-.1-2.8-2.1-3.5H93.44Zm6-17.3-2.5,7.2h29.3c1.4,0,2.8-.8,4.3-2.5a6.7,6.7,0,0,0,.6-1.1c.6-1.7-.2-2.8-2.3-3.4a3.08,3.08,0,0,0-1-.1H99.44Z" transform="translate(-70.04 -277.25)"/><path d="M170.64,444H213c5.2,0,9,1.8,11.4,5.3a8.93,8.93,0,0,1,.6,7.5l-7.4,21.2c-1.5,4.3-5.4,7.9-11.6,10.6a24.74,24.74,0,0,1-9.3,2h-42.4c-6,0-10-2.3-12.2-6.8a9.68,9.68,0,0,1,0-5.6l7.5-21.6c1.5-4.3,5.4-7.9,11.6-10.6a23.75,23.75,0,0,1,9.4-2m-6,19-2.9,8.4c-1.3,3.8-.2,6.4,3.3,7.7a9.15,9.15,0,0,0,3.3.4h23.1c4.1,0,7.7-2,10.7-6a8.94,8.94,0,0,0,.7-1.8l3.1-9c1.2-3.5.1-6-3.4-7.4a9.15,9.15,0,0,0-3.3-.4h-22.4a11.76,11.76,0,0,0-12.2,8.1" transform="translate(-70.04 -277.25)"/><path d="M356.34,444h58.9c.1,0,.2.1.1.2l-3.7,10.6c0,.1-.1.2-.3.2h-42.1l-2.5,7.2h33.6c.1,0,.2.1.1.2l-3.4,9.7c0,.1-.1.2-.3.2h-33.5l-2.5,7.2h42.1c.1,0,.2.1.1.2l-3.7,10.6c-.1.1-.1.2-.3.2H340c-.2,0-.2-.1-.2-.2l16.1-46.2c.1-.1.2-.1.4-.1" transform="translate(-70.04 -277.25)"/><path d="M499.14,444.85h41.7c.2,0,.2.1.2.2l-3.7,10.2c-.1.1-.2.2-.3.2h-31.9a13.09,13.09,0,0,0-11,5.7,15.59,15.59,0,0,0-1,2.2l-2.9,7.9c-1.4,3.8-.3,6.3,3.2,7.5a9.15,9.15,0,0,0,3.3.4h31.5c.2,0,.2.1.2.2l-3.7,10.2c-.1.1-.2.2-.3.2H483c-6.2,0-10.3-2.2-12.4-6.6a8,8,0,0,1,.1-5.5l7.6-21c1.3-3.4,4.6-6.6,10.2-9.3a25.52,25.52,0,0,1,10.6-2.5" transform="translate(-70.04 -277.25)"/><path d="M435.54,444.85h41.7c.2,0,.2.1.2.2l-3.7,10.2c-.1.1-.2.2-.3.2h-31.9a13.09,13.09,0,0,0-11,5.7,15.59,15.59,0,0,0-1,2.2l-2.9,7.9c-1.4,3.8-.3,6.3,3.2,7.5a9.15,9.15,0,0,0,3.3.4h31.6c.2,0,.2.1.2.2l-3.7,10.2c0,.1-.2.2-.3.2h-41.4c-6.2,0-10.3-2.2-12.4-6.6a8,8,0,0,1,.1-5.5l7.6-21c1.3-3.4,4.7-6.6,10.2-9.3a25.1,25.1,0,0,1,10.5-2.5" transform="translate(-70.04 -277.25)"/><path d="M544.84,444.75h16.6c.2,0,.2.1.2.2l-6.1,17.3h31.3l6.1-17.3c.1-.1.2-.2.3-.2h16.6c.2,0,.2.1.2.2l-15.9,45.4c0,.1-.2.2-.3.2h-16.6c-.2,0-.2-.1-.2-.2l6.3-18H552l-6.3,18c-.1.1-.2.2-.3.2h-16.6c-.2,0-.2-.1-.2-.2l15.9-45.4c.1-.1.2-.2.3-.2" transform="translate(-70.04 -277.25)"/><path d="M613.44,444.75H630c.2,0,.2.1.2.2l-16,45.5c-.1.1-.2.2-.3.2h-16.6c-.2,0-.2-.1-.2-.2L613,445c.1-.2.2-.3.4-.3" transform="translate(-70.04 -277.25)"/><path d="M679.24,444c.2.3,4.8,15.8,14,46.4l-.1.2h-17.2c-.3-.3-1.2-3-2.7-8.2q-.45-.6-8.1-25.2c-.8.6-5.6,5.3-14.3,14.1-.4.3-7,6.8-19.8,19.4H614l-.2-.1q41.55-41.85,46.3-46.5h19.1Z" transform="translate(-70.04 -277.25)"/><polygon points="582.8 195.5 596.7 195.5 584 213.5 582.8 195.5"/><path d="M289.84,444h-56.9c-.1,0-.3.1-.3.2l-3.7,10.6c0,.1,0,.2.2.2h22.6l-12.3,35.3c-.1.1,0,.2.2.2h16.6c.2,0,.3-.1.3-.2l12.3-35.3h17Z" transform="translate(-70.04 -277.25)"/><path d="M351,444h-56.9c-.1,0-.3.1-.3.2l-3.7,10.6c0,.1,0,.2.2.2h22.6l-12.3,35.3c-.1.1,0,.2.2.2h16.4c.2,0,.3-.1.3-.2l12.3-35.3h17.1Z" transform="translate(-70.04 -277.25)"/><path d="M696.44,452.45a5.07,5.07,0,0,1-7.2,0,5,5,0,0,1-1.5-3.7,5.1,5.1,0,0,1,10.2,0,4.63,4.63,0,0,1-1.5,3.7m-6.7-6.8a4.16,4.16,0,0,0-1.3,3.1,4.38,4.38,0,0,0,1.3,3.2,4.16,4.16,0,0,0,3.1,1.3,4,4,0,0,0,3.1-1.3,4.22,4.22,0,0,0,1.3-3.2,4,4,0,0,0-1.3-3.1,4.16,4.16,0,0,0-3.1-1.3,4,4,0,0,0-3.1,1.3m3,.3a4.87,4.87,0,0,1,1.5.2,1.33,1.33,0,0,1,.9,1.4,1.15,1.15,0,0,1-.6,1.1,6.89,6.89,0,0,1-.8.3,1.7,1.7,0,0,1,1,.6,1.61,1.61,0,0,1,.3.9v.8c0,.2,0,.2.1.3v.1h-.9v-.9a1.58,1.58,0,0,0-.5-1.3,2.68,2.68,0,0,0-1.1-.2h-.8v2.2h-1v-5.7h1.9Zm1.1.9a3.73,3.73,0,0,0-1.2-.2h-.9v2.1h.9a2.22,2.22,0,0,0,.9-.1.87.87,0,0,0,.6-.9q0-.75-.3-.9" transform="translate(-70.04 -277.25)"/><polygon points="347.4 77.7 313.4 88.2 279.7 77.7 289.4 99.1 288.3 119.3 313.3 138.6 338.4 119.3 337.8 99.1 347.4 77.7" style="fill:#e30613"/><polygon points="304.8 137.6 288.1 124.8 287.8 133 304.8 146 304.8 137.6" style="fill:#009640"/><path d="M391.74,414.85v8.4l17-13s-.2-7.2-.2-8.3Z" transform="translate(-70.04 -277.25)" style="fill:#e30613"/><polygon points="304.8 137.6 304.8 146 313.3 152.5 321.7 146 321.7 137.6 313.3 144.1 304.8 137.6" style="fill:#fff"/><path d="M373.34,358.95h-1.6l1.1-5.4-1.7,1.2.4-1.8,1.7-1.2h1.6Z" transform="translate(-70.04 -277.25)" style="fill:#e30613"/><path d="M381.94,354.25c0,.2-.1.3-.2.5s-.2.3-.3.5a2.09,2.09,0,0,1-.4.6l-2,3.1h-1.7l2-2.9h-.4a1.27,1.27,0,0,1-.6-.1,1,1,0,0,1-.5-.4l-.3-.6a2,2,0,0,1-.1-.8,3.55,3.55,0,0,1,.2-1,2.1,2.1,0,0,1,1.3-1.3,2.6,2.6,0,0,1,2,0,1.79,1.79,0,0,1,.7.5,2.09,2.09,0,0,1,.4.6,1.7,1.7,0,0,1,.1.7C382,353.95,382,354.15,381.94,354.25Zm-1.7-.9a.76.76,0,0,0-.5-.2.6.6,0,0,0-.6.3,1.45,1.45,0,0,0-.2.7.68.68,0,0,0,.7.7.6.6,0,0,0,.6-.3,1.45,1.45,0,0,0,.2-.7C380.44,353.65,380.44,353.45,380.24,353.35Z" transform="translate(-70.04 -277.25)" style="fill:#e30613"/><path d="M388.34,354.35l-.3.6a.78.78,0,0,1-.4.4l-.3.3-1.9,1.9h2.4l-.3,1.4h-4.4l.3-1.4,2.9-2.9c.2-.2.3-.4.4-.5a.75.75,0,0,0,.1-.5c0-.2,0-.3-.1-.4s-.2-.1-.4-.1a.9.9,0,0,0-.5.1.85.85,0,0,0-.3.6h-1.6a2.72,2.72,0,0,1,.8-1.6,2.31,2.31,0,0,1,1.7-.5,1.74,1.74,0,0,1,1.9,1.9A.6.6,0,0,1,388.34,354.35Z" transform="translate(-70.04 -277.25)" style="fill:#e30613"/><path d="M392.64,354.75h.4a1.27,1.27,0,0,1,.6.1,1,1,0,0,1,.5.4l.3.6a2,2,0,0,1,.1.8,3.55,3.55,0,0,1-.2,1,2.1,2.1,0,0,1-1.3,1.3,2.6,2.6,0,0,1-2,0,1.79,1.79,0,0,1-.7-.5,2.09,2.09,0,0,1-.4-.6,1.7,1.7,0,0,1-.1-.7.75.75,0,0,1,.1-.5c0-.2.1-.3.2-.5s.2-.3.3-.5a2.09,2.09,0,0,1,.4-.6l2-3.1h1.7Zm.2,1.4a.76.76,0,0,0-.5-.2.6.6,0,0,0-.6.3,1.45,1.45,0,0,0-.2.7.68.68,0,0,0,.7.7.6.6,0,0,0,.6-.3,1.45,1.45,0,0,0,.2-.7A.59.59,0,0,0,392.84,356.15Z" transform="translate(-70.04 -277.25)" style="fill:#e30613"/><path d="M304.44,333.35h12.9a3.35,3.35,0,0,1,3.3,1.8,4.3,4.3,0,0,1,0,1.6l-.1.4a4.87,4.87,0,0,1-2.5,2.4,1.85,1.85,0,0,1,.8,2.4l-.2.6a6.12,6.12,0,0,1-5.2,3.3h-13.3s-.1,0,0-.1l4.3-12.4h0m1.9,7.6-.7,1.9h7.5a1.68,1.68,0,0,0,1.4-.6c.1-.2.2-.3.2-.4.2-.4,0-.8-.6-1h-7.8Zm1.6-4.7-.7,1.9h7.9a1.55,1.55,0,0,0,1.2-.7,1.24,1.24,0,0,1,.2-.3q.3-.75-.6-.9h-8Z" transform="translate(-70.04 -277.25)" style="fill:#e30613"/><path d="M327,333.35h11.4a3.68,3.68,0,0,1,3.1,1.4,2.33,2.33,0,0,1,.2,2l-2,5.7c-.4,1.2-1.4,2.1-3.1,2.9a5.87,5.87,0,0,1-2.5.5h-11.4a3.35,3.35,0,0,1-3.3-1.8,2.53,2.53,0,0,1,0-1.5l2-5.8c.4-1.2,1.4-2.1,3.1-2.9a5.87,5.87,0,0,1,2.5-.5m-1.6,5.1-.8,2.3a1.43,1.43,0,0,0,.9,2.1,2.22,2.22,0,0,0,.9.1h6.2a3.5,3.5,0,0,0,2.9-1.6,1.69,1.69,0,0,0,.2-.5l.8-2.4a1.48,1.48,0,0,0-.9-2,2.22,2.22,0,0,0-.9-.1h-6a3.56,3.56,0,0,0-2.9,1.4c-.2.1-.3.4-.4.7" transform="translate(-70.04 -277.25)" style="fill:#e30613"/><path d="M376.84,333.35h15.8v.1l-1,2.8a.1.1,0,0,1-.1.1h-11.3l-.7,1.9h9s.1,0,0,.1l-.9,2.6h-9.1l-.7,1.9h11.3v.1l-1,2.8a.1.1,0,0,1-.1.1h-15.8s-.1,0,0-.1l4.6-12.4h0" transform="translate(-70.04 -277.25)" style="fill:#e30613"/><path d="M415.24,333.55h11.2s.1,0,0,.1l-1,2.7a.1.1,0,0,1-.1.1h-8.6a3.69,3.69,0,0,0-3,1.5,3.33,3.33,0,0,0-.3.6l-.8,2.1a1.32,1.32,0,0,0,.9,2,2.22,2.22,0,0,0,.9.1h8.5l-1,2.7a.1.1,0,0,1-.1.1h-11.1q-2.55,0-3.3-1.8a2,2,0,0,1,0-1.5l2-5.6a4.77,4.77,0,0,1,2.7-2.5,9.89,9.89,0,0,1,3.1-.6" transform="translate(-70.04 -277.25)" style="fill:#e30613"/><path d="M398.14,333.55h11.2s.1,0,0,.1l-1,2.7a.1.1,0,0,1-.1.1h-8.6a3.69,3.69,0,0,0-3,1.5,3.33,3.33,0,0,0-.3.6l-.8,2.1a1.32,1.32,0,0,0,.9,2,2.22,2.22,0,0,0,.9.1h8.5l-1,2.7a.1.1,0,0,1-.1.1h-11.1q-2.55,0-3.3-1.8a2,2,0,0,1,0-1.5l2-5.6a4.77,4.77,0,0,1,2.7-2.5,10.42,10.42,0,0,1,3.1-.6" transform="translate(-70.04 -277.25)" style="fill:#e30613"/><path d="M427.44,333.55h4.4s.1,0,0,.1l-1.6,4.6h8.4l1.6-4.6a.1.1,0,0,1,.1-.1h4.4s.1,0,0,.1l-4.1,12.1a.1.1,0,0,1-.1.1h-4.4s-.1,0,0-.1l1.7-4.8h-8.4l-1.7,4.8a.1.1,0,0,1-.1.1h-4.4s-.1,0,0-.1l4.2-12.2h0" transform="translate(-70.04 -277.25)" style="fill:#e30613"/><path d="M445.84,333.55h4.4s.1,0,0,.1l-4.1,12.1a.1.1,0,0,1-.1.1h-4.4s-.1,0,0-.1l4.2-12.2h0" transform="translate(-70.04 -277.25)" style="fill:#e30613"/><path d="M463.54,333.35c0,.1,1.3,4.2,3.7,12.4v.1h-4.6a13.38,13.38,0,0,1-.7-2.2c-.1-.1-.8-2.4-2.2-6.8-.2.2-1.5,1.4-3.8,3.8-.1.1-1.9,1.8-5.3,5.2h-4.7c7.4-7.5,11.6-11.6,12.4-12.5Z" transform="translate(-70.04 -277.25)" style="fill:#e30613"/><polygon points="386.4 63.8 390.1 63.8 386.7 68.6 386.4 63.8" style="fill:#e30613"/><path d="M359,333.35h-15.3a.1.1,0,0,0-.1.1l-1,2.8v.1h6.1l-3.3,9.5v.1h4.4a.1.1,0,0,0,.1-.1l3.3-9.5h4.6Z" transform="translate(-70.04 -277.25)" style="fill:#e30613"/><path d="M375.54,333.35h-15.4l-1,3h4.7l-3.3,9.5v.1h4.4a.1.1,0,0,0,.1-.1l3.3-9.5h6.1a.1.1,0,0,0,.1-.1l1-2.9h0" transform="translate(-70.04 -277.25)" style="fill:#e30613"/><polygon points="198.2 25 258.8 36 264.8 52.5 222.9 52.5 198.2 25" style="fill:#e30613"/><polygon points="283.3 94.5 276 77.5 240.7 73.4 260.5 94.5 283.3 94.5" style="fill:#e30613"/><polygon points="284.9 98.3 264 98.3 284.7 117.5 286.1 101.2 284.9 98.3" style="fill:#e30613"/><path d="M430,297.85,406.84,322c-.9-11.4-3.1-33.8-10.8-37.6-16.5-6.9-29.1,5.1-29.1,5.1-11.4,2-16.1,5.3-12.6,11,15.2-9.1,16.5,12.8,10.4,26.2l-27.7-29-92.8-20.5,19,19.8,68,13.3,7.3,19.4h89.9l7.2-19.4,68-13.3,19-19.8Zm-52.7-6.9v1.6h-7.1l4.4-3.3h9.7Z" transform="translate(-70.04 -277.25)" style="fill:#e30613"/><polygon points="428.7 25 368.1 36 362.1 52.5 403.9 52.5 428.7 25" style="fill:#e30613"/><polygon points="343.6 94.5 350.8 77.5 386.2 73.4 366.4 94.5 343.6 94.5" style="fill:#e30613"/><polygon points="342 98.3 362.9 98.3 342.2 117.5 340.8 101.2 342 98.3" style="fill:#e30613"/></svg>