<svg id="Layer_1" data-name="Layer 1" xmlns="http://www.w3.org/2000/svg" width="151.17" height="100.64" viewBox="0 0 151.17 100.64"><title>Horex logo - brandlogos.net</title><polygon points="94.41 84.59 94.41 84.59 94.41 84.59 94.41 84.59" style="fill:#fff"/><path d="M459.38,366.54a2.71,2.71,0,0,0-2.57-1.62H410.92a39.68,39.68,0,0,0-7.81-5.68l-.1-.05.15-.34-.07.16.22-1.1a2.85,2.85,0,0,0-.06-.38,13,13,0,0,0,1.81-6.2,9.16,9.16,0,0,0-2.42-6.25c-3.27-3.6-8.75-4.52-11.77-4.29a7.1,7.1,0,0,0-1.36-.38,5.52,5.52,0,0,0,.13-1.14,5.58,5.58,0,1,0-11,1.16,7.23,7.23,0,0,0-1.21.36c-3-.23-8.5.69-11.77,4.29a9.16,9.16,0,0,0-2.41,6.24,13,13,0,0,0,1.81,6.2,2.84,2.84,0,0,0-.06.38l.24,1.16-.13.07a39.66,39.66,0,0,0-8,5.79H311.19a2.71,2.71,0,0,0-2.57,1.62,2.52,2.52,0,0,0,.52,2.76l6.23,6.32a3.45,3.45,0,0,0,2.45,1.24h.42a2.51,2.51,0,0,0,.64,2.36l6.23,6.32a3.45,3.45,0,0,0,2.45,1.24H328a2.51,2.51,0,0,0,.64,2.35l6.23,6.32a3.45,3.45,0,0,0,2.45,1.24h7.25a39.5,39.5,0,0,0,14.85,28.09l5.27-7.12q-1.13-.93-2.19-2a30.61,30.61,0,1,1,43.28,0,31,31,0,0,1-3,2.6l5,7a39.41,39.41,0,0,0,15.61-28.62h7.27a3.45,3.45,0,0,0,2.45-1.24l6.23-6.32a2.51,2.51,0,0,0,.64-2.36h.41a3.45,3.45,0,0,0,2.45-1.24l6.23-6.32a2.5,2.5,0,0,0,.64-2.36h.42a3.46,3.46,0,0,0,2.46-1.24l6.23-6.32a2.52,2.52,0,0,0,.51-2.76M344.66,394.67h-7.35c-.38,0-.72-.34-1-.64l-6.23-6.32c-.27-.27-.16-.93.62-.93h14.6a39.78,39.78,0,0,0-.63,7.06c0,.28,0,.56,0,.83m1-9.91H327.57c-.38,0-.72-.34-1-.64l-6.23-6.32c-.27-.27-.16-.93.62-.93h27.53a39.37,39.37,0,0,0-2.77,7.89m3.84-10-31.72.06c-.38,0-.72-.34-1-.64l-6.23-6.32c-.27-.27-.16-.93.62-.93h44a39.87,39.87,0,0,0-5.65,7.83m88.4,12.93L431.71,394c-.3.3-.63.64-1,.64h-7.35c0-.28,0-.55,0-.83a39.69,39.69,0,0,0-.63-7.06h14.6c.78,0,.89.66.62.93m9.74-9.92-6.23,6.32c-.3.3-.63.64-1,.64H422.3a39.3,39.3,0,0,0-2.77-7.89h27.53c.77,0,.89.67.62.93m9.75-9.92-6.23,6.32c-.3.3-.63.64-1,.64l-31.72-.06a39.82,39.82,0,0,0-5.65-7.83h44c.78,0,.89.66.62.93" transform="translate(-308.42 -333.68)" style="fill:#d4a95e"/><path d="M364.86,417.41l.1-.13q-1.11-.91-2.13-1.94a30.14,30.14,0,1,1,42.62,0,30.58,30.58,0,0,1-2.89,2.55l.1.13.14.19,0,.05a31.16,31.16,0,0,0,3-2.6,30.61,30.61,0,1,0-43.28,0q1.05,1,2.18,2l0-.05Z" transform="translate(-308.42 -333.68)" style="fill:#fff"/><path d="M365.36,416.75l.68.53a29.53,29.53,0,0,0,35.45.57l.69-.5.35.49,0,.05a30.59,30.59,0,0,0,2.89-2.54,30.14,30.14,0,1,0-42.62,0q1,1,2.13,1.94l0-.05Z" transform="translate(-308.42 -333.68)" style="fill:#f0141c"/><path d="M389.57,374v12.55H378.72V374H368.06v40.07h10.65v-17h10.85v17h10.65V374Zm7,3.64v32.79h-3.36v-17H375.07v17h-3.36V377.68h3.36v12.55h18.15V377.68Z" transform="translate(-308.42 -333.68)" style="fill:#d4a95e;fill-rule:evenodd"/><polygon points="68.48 54.73 82.98 54.73 82.98 42.18 89.98 42.18 89.98 78.61 82.98 78.61 82.98 61.6 68.48 61.6 68.48 78.61 61.47 78.61 61.47 42.18 68.48 42.18 68.48 54.73" style="fill:#fff;fill-rule:evenodd"/><polygon points="88.16 44 88.16 76.78 84.8 76.78 84.8 59.78 66.65 59.78 66.65 76.78 63.3 76.78 63.3 44 66.65 44 66.65 56.55 84.8 56.55 84.8 44 88.16 44" style="fill:#f0141c"/><path d="M403.43,351.58a7.55,7.55,0,0,0-2-5.12c-2.82-3.13-8-4.07-10.71-3.74a5.43,5.43,0,0,0-2.28-.53,7.4,7.4,0,0,0-1.21-.48,3.84,3.84,0,1,0-6.14,0,7.27,7.27,0,0,0-1.09.44,5.43,5.43,0,0,0-2.29.53c-2.75-.33-7.89.61-10.71,3.74a7.54,7.54,0,0,0-2,5.12,11.73,11.73,0,0,0,1.81,5.84l.07.11H367l-.09.18,0,.06a1.19,1.19,0,0,0-.09.44,1.12,1.12,0,0,0,.09.44l.4.9a13.73,13.73,0,0,1,1.49,5.76v.26l0,.53.39-.21a31.85,31.85,0,0,1,14.87-3.7h0a31.85,31.85,0,0,1,15.2,3.87l.41.22v-.86s0,0,0-.06,0,0,0-.05a13.76,13.76,0,0,1,1.49-5.76l.4-.9a1.13,1.13,0,0,0,.09-.43,1.27,1.27,0,0,0-.17-.61,12.9,12.9,0,0,0,1.92-6m-37.8,0a7,7,0,0,1,1.82-4.74c2.69-3,7.61-3.88,10.24-3.56a.52.52,0,0,0,.29,0,4.85,4.85,0,0,1,2.07-.48.51.51,0,0,0,.23-.06,7.1,7.1,0,0,1,1.37-.51h.05l.45-.13-.32-.34a3.28,3.28,0,1,1,4.74,0l-.5.34.37.07h.06l.21.05a7.13,7.13,0,0,1,1.53.56.53.53,0,0,0,.23.06,4.87,4.87,0,0,1,2.07.48.51.51,0,0,0,.29,0c2.63-.32,7.55.57,10.24,3.56a7,7,0,0,1,1.82,4.74,12.15,12.15,0,0,1-1.74,5.57c-2.21-2-9.62-3.64-17-3.64A47.8,47.8,0,0,0,373,354.77c-1.61.4-4.24,1.19-5.51,2.35a.46.46,0,0,0-.14-.09,11.09,11.09,0,0,1-1.68-5.46m35.45,6.85-.4.89a14.25,14.25,0,0,0-1.54,6h0v0a32.41,32.41,0,0,0-15.06-3.72h0a32.41,32.41,0,0,0-14.72,3.55,14.38,14.38,0,0,0-1.53-5.86l-.4-.89a.53.53,0,0,1,0-.21.58.58,0,0,1,0-.2h0c.56-.95,2.68-2,5.67-2.69a47.19,47.19,0,0,1,11-1.24,50.12,50.12,0,0,1,10.83,1.15c3.06.7,5.26,1.64,6,2.57h0a.8.8,0,0,1,.15.42.54.54,0,0,1,0,.21" transform="translate(-308.42 -333.68)" style="fill:#fff"/><path d="M398.31,349.95a7.21,7.21,0,0,0-3.87-2.33,16,16,0,0,1,.8,7.1,27.46,27.46,0,0,1,2.66.76c1.86-3.53.77-5,.41-5.53" transform="translate(-308.42 -333.68)" style="fill:#f0141c"/><path d="M388.94,346.92c-.7-.44-2.4-.23-2.55.76v5.88c1.57.07,3.11.2,4.57.39.2-2.13-.56-6.12-2-7" transform="translate(-308.42 -333.68)" style="fill:#f0141c"/><path d="M379.55,346.92c-1.46.91-2.21,4.87-2,7,1.48-.19,3-.32,4.57-.38v-5.87c-.15-1-1.84-1.19-2.55-.76" transform="translate(-308.42 -333.68)" style="fill:#f0141c"/><path d="M374,347.62a7.21,7.21,0,0,0-3.87,2.33c-.37.5-1.45,2,.4,5.52.85-.3,1.7-.54,2.37-.7l.29-.07a16,16,0,0,1,.81-7.08" transform="translate(-308.42 -333.68)" style="fill:#f0141c"/><path d="M327.56,384.75c-.38,0-.72-.34-1-.64l-6.23-6.32c-.27-.27-.16-.93.62-.93h27.53a39.3,39.3,0,0,0-2.77,7.89Z" transform="translate(-308.42 -333.68)" style="fill:#fff"/><path d="M344.65,394.67H337.3c-.38,0-.72-.34-1-.64l-6.23-6.32c-.27-.27-.16-.93.62-.93h14.6a39.69,39.69,0,0,0-.63,7.06c0,.28,0,.56,0,.83" transform="translate(-308.42 -333.68)" style="fill:#fff;fill-rule:evenodd"/><path d="M311.19,366.95h44a39.82,39.82,0,0,0-5.65,7.83l-31.72.06c-.38,0-.72-.34-1-.64l-6.23-6.31c-.27-.27-.16-.93.62-.93" transform="translate(-308.42 -333.68)" style="fill:#fff"/><path d="M440.42,384.75c.38,0,.72-.34,1-.64l6.23-6.32c.27-.27.16-.93-.62-.93H419.52a39.42,39.42,0,0,1,2.77,7.89Z" transform="translate(-308.42 -333.68)" style="fill:#fff"/><path d="M423.34,394.67h7.35c.38,0,.72-.34,1-.64l6.23-6.32c.27-.27.16-.93-.62-.93h-14.6a39.67,39.67,0,0,1,.63,7.06c0,.28,0,.55,0,.83" transform="translate(-308.42 -333.68)" style="fill:#fff"/><path d="M456.8,366.95h-44a39.78,39.78,0,0,1,5.65,7.83l31.72.06c.38,0,.72-.34,1-.64l6.23-6.31c.27-.27.16-.93-.62-.93" transform="translate(-308.42 -333.68)" style="fill:#fff"/><path d="M360.31,423.55a38.19,38.19,0,0,1-10.09-12.69,37.3,37.3,0,0,1-3.83-16.55,37.78,37.78,0,0,1,19.68-33.13l.23-.12.1.24a11.36,11.36,0,0,1,.92,4.34c0,.07,0,.29,0,.29a3.22,3.22,0,0,0,.09.77l0,.17-.14.09a32.44,32.44,0,0,0-11.1,11.47A32.08,32.08,0,0,0,363.65,419m2.42-57.33a37.31,37.31,0,0,0-19.21,32.6,36.83,36.83,0,0,0,3.78,16.35,37.72,37.72,0,0,0,10,12.53l2.78-3.76a32.56,32.56,0,0,1-7.57-41.24,32.9,32.9,0,0,1,11.12-11.55,3.75,3.75,0,0,1-.07-.71s0-.23,0-.28a10.94,10.94,0,0,0-.79-3.93" transform="translate(-308.42 -333.68)" style="fill:#fff"/><path d="M416.49,374.88a38,38,0,0,0-14.1-13.61l-.23-.13-.1.24a11.28,11.28,0,0,0-.88,4.22l0,.14v0l0,.17a3.1,3.1,0,0,1-.12.84l0,.17.15.09a32.45,32.45,0,0,1,11,11.45,32.08,32.08,0,0,1,4.15,15.79,31.73,31.73,0,0,1-3.44,14.45,32.51,32.51,0,0,1-9,10.92l.27.38A33,33,0,0,0,413.25,409a32.2,32.2,0,0,0,3.49-14.67,32.55,32.55,0,0,0-4.22-16,32.93,32.93,0,0,0-11-11.53,3.53,3.53,0,0,0,.09-.81v0l0-.16,0-.09v0a10.89,10.89,0,0,1,.75-3.83,37.56,37.56,0,0,1,13.7,13.31,37.22,37.22,0,0,1,1.29,36,37.72,37.72,0,0,1-10.58,12.72l-.62-.88.89,1.26a38.2,38.2,0,0,0,10.73-12.89,37.69,37.69,0,0,0-1.31-36.49" transform="translate(-308.42 -333.68)" style="fill:#fff"/><path d="M406.17,423l-2.08-2.94Z" transform="translate(-308.42 -333.68)" style="fill:#fff"/><path d="M402.79,418.22l-.14-.19-.13-.19-.35-.49-.69.5a29.53,29.53,0,0,1-35.45-.57l-.68-.53-.35.48-.14.19-.14.19-5.81,7.85.65.5a40.3,40.3,0,0,0,48.18.72l.67-.49Zm4.69,8.08a39.79,39.79,0,0,1-47.62-.71l-.29-.22,5.53-7.47.14-.19.14-.19.08-.11.3.24a30,30,0,0,0,36,.57l.31-.22.08.12.13.19.14.19,5.36,7.58Z" transform="translate(-308.42 -333.68)" style="fill:#fff"/><path d="M402.42,418.5l-.14-.19-.13-.19-.08-.12-.31.22a30,30,0,0,1-36-.58l-.3-.24-.08.11-.14.19-.14.19-5.53,7.47.29.22a39.83,39.83,0,0,0,47.62.71l.3-.22Z" transform="translate(-308.42 -333.68)" style="fill:#d4a95e"/><path d="M370.59,422.22l-1.14,2.62,1.24.57,1.41.58,1.13-2.62,1.32.46-2.87,6.67-1.32-.48,1.27-2.94-1.35-.55-1.29-.59-1.27,2.94-1.25-.62,2.87-6.67,1.25.65" transform="translate(-308.42 -333.68)" style="fill:#f0141c"/><path d="M374.27,427.67c.42-2.23,2-3.45,3.93-3.08s2.94,2.07,2.51,4.31-2,3.45-3.91,3.09-2.95-2.07-2.52-4.31m1.43.27c-.3,1.57.19,2.65,1.32,2.86s2-.61,2.26-2.18-.19-2.66-1.3-2.87-2,.61-2.27,2.19" transform="translate(-308.42 -333.68)" style="fill:#f0141c"/><path d="M382,425.29l1.82.08a4.54,4.54,0,0,1,2.25.25,2.08,2.08,0,0,1,1,1.88,2.06,2.06,0,0,1-1.28,2l1.65,3-1.56.1-1.53-2.81h-1v2.84l-1.39-.06Zm2.77,1.2-1,0h-.4v2.1h.51l.76,0a1,1,0,0,0,1-1,1,1,0,0,0-.47-.85,1.08,1.08,0,0,0-.46-.16" transform="translate(-308.42 -333.68)" style="fill:#f0141c"/><polygon points="85.12 90.29 85.95 90.02 86.68 89.76 88.75 91.36 89.14 88.73 89.9 88.36 90.64 87.97 89.96 92.19 93.34 94.73 91.96 95.4 89.7 93.66 89.27 96.52 87.82 97.03 88.47 92.81 85.12 90.29" style="fill:#f0141c"/><path d="M391.74,431.89c-1.25.24-2.23.37-2.23.37l-1.26-7.13s1-.14,2.06-.34c1.2-.22,2.26-.54,2.41-.58l.21,1.18-1.65.41-1.44.28.3,1.68,1.29-.25,1.52-.36.2,1.15-1.42.34-1.4.28.34,2c.77-.14,2-.36,3.21-.7l.21,1.18s-1,.29-2.36.54" transform="translate(-308.42 -333.68)" style="fill:#f0141c"/></svg>