<?xml version="1.0" encoding="UTF-8"?><svg id="Layer_1" xmlns="http://www.w3.org/2000/svg" xmlns:xlink="http://www.w3.org/1999/xlink" viewBox="0 0 466.6 308.47"><defs><style>.cls-1{fill:url(#radial-gradient);}.cls-2{fill:#1f1500;}.cls-3{fill:#ed1c2e;}</style><radialGradient id="radial-gradient" cx="-25.57" cy="333.09" fx="-25.57" fy="333.09" r="58.78" gradientTransform="translate(424.9 -97.36) rotate(-180) scale(.68 -1.02)" gradientUnits="userSpaceOnUse"><stop offset="0" stop-color="#b4202d"/><stop offset="1" stop-color="#4a1518"/></radialGradient></defs><path class="cls-2" d="M296.36,175.75c.66,0,1.28-.26,1.74-.72.46-.46.72-1.08.72-1.74s-.26-1.27-.72-1.74c-.46-.46-1.08-.72-1.74-.72-1.36,0-2.46,1.1-2.46,2.46,0,.66.26,1.28.72,1.74.46.46,1.08.72,1.74.72h0ZM294.18,173.29c0-.58.23-1.13.64-1.54.41-.41.96-.64,1.54-.64s1.13.23,1.55.64c.41.41.64.96.64,1.54,0,1.21-.98,2.19-2.19,2.19-.58,0-1.13-.23-1.54-.64-.41-.41-.64-.96-.64-1.55h0ZM296.36,173.29h-2.19,2.19Z"/><path class="cls-2" d="M295.34,171.98h1.29c.68,0,.81.5.81.72,0,.28-.14.53-.4.61.21.09.32.17.32.65,0,.37,0,.47.12.51v.07h-.59c-.04-.12-.06-.25-.06-.52,0-.35-.02-.49-.42-.49h-.55v1h-.52v-2.56h0ZM296.5,173.11c.28,0,.41-.1.41-.35,0-.13-.06-.33-.37-.33h-.67v.69h.63Z"/><path class="cls-2" d="M235.4,159.96l-2.49,4.22h2.05l.44-4.22h0ZM193.09,156.39h-2s-3.71,8.64-3.71,8.64c.57-.09,2.28-.35,2.7-.47.51-.15.92-.66,1.51-1.92.58-1.26,1.47-3.53,1.94-4.69.47-1.16.04-1.56-.45-1.56h0ZM271.37,155.17c1.08,0,1.57.91.53,1.97-1.04,1.06-11.63,12.62-11.99,13.02-.36.4-.52.81.12.81h6.42s-.57,1.46-.57,1.46h-9.95c-1.17,0-1.6-.8-.48-2.01,1.12-1.21,11.85-12.77,12.26-13.22.41-.46.3-.66-.1-.66h-5.82s.5-1.37.5-1.37h9.08ZM250.03,155.18s-5.78,13.73-6.22,14.69c-.44.96.12,1.11.66,1.11h3.77s-.57,1.46-.57,1.46h-6.87c-1.27,0-1.73-.85-1.04-2.47.69-1.62,6.38-14.79,6.38-14.79h3.88ZM239.4,155.19l-1.45,17.26h-3.83s.74-7.01.74-7.01h-3.13s-4.63,7.02-4.63,7.02h-3.69s10.56-15.59,10.94-16.14c.38-.55,1.18-1.12,1.72-1.12h3.33ZM229.23,155.19l-7.34,17.27h-4.03s7.49-17.27,7.49-17.27h3.88ZM260.49,155.18l-7.34,17.27h-4.03s7.49-17.27,7.49-17.27h3.88ZM223.28,155.2l-.56,1.22h-5.1c-1.27,0-1.41.56-1.7,1.16-.29.61-5.03,11.76-5.32,12.36-.29.61-.26,1.06.57,1.06h4.01s1.19,0,1.19,0l-.46,1.46h-8.25c-1.47,0-1.76-.95-1.23-2.21.54-1.26,5.48-12.77,5.88-13.78.4-1.01,1.49-1.28,2.66-1.28h8.31ZM211.17,155.2l-.61,1.18h-4.62c-1.27,0-1.72.36-2.16,1.31-.44.96-2.3,5.41-2.3,5.41h4.96s-.66,1.25-.66,1.25h-4.8s-1.85,4.24-2.31,5.3c-.46,1.06-.36,1.36.43,1.36h4.01s1.19,0,1.19,0l-.62,1.46h-8.09c-1.13,0-1.87-.55-1.17-2.27.7-1.71,5.05-11.86,5.65-13.22.6-1.36,1.55-1.79,2.92-1.79h8.18ZM285.26,155.17l-.61,1.18h-4.62c-1.27,0-1.72.36-2.16,1.32-.44.96-2.3,5.41-2.3,5.41h4.96s-.66,1.25-.66,1.25h-4.8s-1.85,4.24-2.3,5.3c-.46,1.06-.36,1.36.43,1.36h4.01s1.19,0,1.19,0l-.62,1.46h-8.09c-1.13,0-1.87-.55-1.17-2.26.71-1.71,5.05-11.86,5.65-13.22.6-1.36,1.55-1.79,2.92-1.79h8.18ZM196.25,155.21c1.42,0,2.06,1.08,1.48,2.64-.58,1.56-1.24,2.97-2.22,5.2-.98,2.22-1.65,2.47-3.5,2.73-1.85.25-5.31.73-5.31.73l-2.62,5.98h-3.78s7.64-17.28,7.64-17.28h8.32ZM185.91,155.21l-.59,1.2-5.55-.02c-.73,0-1.15.46-1.54,1.11-.39.66-.52,1.16-.89,1.97-.37.81-.35,1.67.35,2.22.7.55,1.52,1.34,2.25,1.97,1.34,1.16,1.71,1.7.63,4.19-.83,1.92-.41,1.06-1.14,2.68-.74,1.62-1.58,1.97-2.85,1.97h-8.78s.76-1.46.76-1.46h5.44c.98,0,1.25-.51,1.68-1.37.43-.86.56-1.11,1.1-2.37.54-1.26.68-1.87-.05-2.57-.73-.71-1.68-1.51-2.76-2.47-1.08-.96-1.04-1.21-.49-2.57.55-1.36.77-1.82,1.3-3.08.54-1.26,1.54-1.38,2.57-1.39h8.57ZM285.85,170.96h.97c.98,0,1.25-.51,1.61-1.21.35-.7,4.6-10.5,5.08-11.71.48-1.21.13-1.51-.6-1.51h-2.54l-6.18,14.43h1.66ZM279.69,172.4l7.41-17.3h9.41c1.37,0,1.64,1.41,1.24,2.42-.4,1.01-4.93,11.45-5.46,12.71-.54,1.26-1.31,2.17-2.63,2.17h-9.96Z"/><path class="cls-3" d="M219.78,111.27c.07-.12-.09-.37-.14-.49-.23-.47-.96-.62-.91-1.21.05-.61.78-1.71-.03-1.79-.37-.03-1.02.12-1.1-.33-.05-.29,0-.79.22-1.06.12-.15.53-.21.59-.38.11-.34.43-.43.54-.71.21-.54.17-1.04,0-1.62-.08-.29.01-.65.35-.79.36-.15.66-.69.71-1.06.13-1.03-.03-2.01.61-3,.17-.27-.34-.34-.61-.5-.21-.12-.1-.36.15-.55-.2.28.19.24.21.4.16-.17.43-.34.44-.52.02-.31.19-.6.24-.89.3-1.76.88-4.07,1.92-4.85h.06c.03.25.23.45.22.71-.26-.04-.35-.1-.57.12.16.13.02.45.18.46.26.01.53.06.81.04.26-.02.42.27.63.33.52.14.4-.47.57-.78-.29-.12-.13-.41-.18-.61-.02-.1,0-.4,0-.5.05-.54-.68-1.09-.5-1.69.1-.31.25-.61.23-.93-.04-.85.35-1.68.05-2.53.36.02.69-.15.98-.28.47-.21.28-.93.69-1.29-.16-.17.05-.44-.21-.62-.21-.15.29-.28.07-.49.11-.01.29.03.28-.11-.03-.31-.19-.62-.24-.92-.03-.15-.17-.52.13-.57.26-.04.32-.25.5-.33.09-.04.28-.06.27.08-.03.51.31.9.34,1.41,0,.15.07.5.35.59.27.09.45-.09.46-.31.01-.29-.09-.61-.06-.9.01-.12.27-.12.38-.16.52-.17.69.79,1.2.49.39-.23.07-1.28.08-1.41.02-.16-.16-.27-.34-.33-.3-.1-.52-.39-.9-.37-.1,0-.14-.3-.14-.35.06-.89-.4-1.27-1.03-1.7.07-.07.12-.17.2-.19.41-.1.74.29,1.11.21.38-.08.88-.16.95-.6.06-.32-.03-.73-.23-.96-.29-.34-.42-.65-.54-1.05-.14-.43.34-.83.22-1.31.48-.09.54.4.81.61.05.04.07.21-.07.28.45.27.33,1.01.85,1.15.44.12.93.19,1.26.39.32.19.34.82.72,1.07.25.16.46.31.78.21.29-.08.04-.36.03-.49-.03-.5-.48-.94-.49-1.51-.03-1.13-.32-2.21-.63-3.31-.06-.2-.33-.31-.47-.51-.09-.13-.14-.28-.22-.42-.27-.52.13-1.2.29-1.77.43.37.32,1.27.88,1.27.66,0,1.34-.69,1.52-1.22.19-.53.49-1.44-.19-1.96-.1-.08-.31-.11-.33-.24-.02-.17.17-.35.21-.5.16-.61-.11-1.23-.24-1.84.31,0,.49-.18.76-.26.18-.05.48-.09.6-.33.41.28.37.81.32,1.27-.02.13.22.12.23.08.23-.49.42-1.02.58-1.49.12-.36-.18-1.02-.45-1.52.19-.07.18-.32.15-.37-.4-.81.86-3.57,1.61-2.33-.14-.24-.13-.6-.12-.81,0-.4-.04-.96.17-1.34.18-.32.78.05.88-.43.12-.57.43-1.06.33-1.65.45-.03.57-.48.88-.68-.14-.18-.48-.32-.43-.47.08-.24-.12-.48-.24-.53-.02-.01.02,0,0,0-.01,0,.01,0,0,0-.54.32-.97.9-1.59,1.03-.31.06-.7.21-.79.4-.19.38-.5.65-.78.78-1.8.86-3.27,2.47-4.89,3.53-.73.47-1.71.93-2.47,1.36-.08.05-.16.29-.02.45-.11,0-.27-.04-.27.1-.01.47-.3.81-.63.91-.41.14-.78.34-.9.67-.16.42-.48.61-.77.81-.33.22-.75.26-1.12.32-.58.1-.47.9-.99,1.29-1.43,1.1-2.98,1.75-4.25,2.97-.22.21-.27.69-.55.78-.4.13-.66.46-1.01.63-.8.39-2.16,1.91-2.94,2.4-.44.16-.92.71-1.24.98-.41.35-1.01.38-1.53.61-.17.07-.41.08-.56,0-.21-.12-.35-.17-.55-.21-.24-.06-.43-.25-.6-.39-.38-.3-.72-.62-1.04-.95-.79-.82-1.49-1.69-2.37-2.45-.68-.59-1.27-1.19-1.84-1.87-.82-.97-1.68-1.85-2.31-2.93-.17-.29-.47-.49-.64-.79-.25-.47-.72-.82-.98-1.32-.36-.7-1.05-1.24-1.05-2.03,0-1.03.35-2.02.67-3.01.06-.2.33-.31.43-.51.52-1,1.2-2.48,1.66-3.46.14-.31.46-.58.8-.54.48.04.67-.42.81-.7.1-.2-.08-.56-.19-.86-.09-.22.07-.51-.03-.77.51-.07.99-.71,1.29-.33.27.34.57.58.95.6.33.02.25-.25.5-.44.09-.06.25,0,.37-.03.35-.1.35-.66,0-.75-.6-.15-.89-.75-.9-1.19-.02-.74.35-1.9,1.02-2.33.13-.08.57-.25.65-.18.39.35-.05,1.17.61,1.29.37.06,1.03,0,.97-.42-.05-.37-.71-.64-.72-1.09-.02-.76,1.05-.65,1.3-1.12.54-1.04.68-2.39.28-3.58-.1-.3.47-.21.72-.3.49-.16.36.79.86,1.01.07-.18.36,0,.37-.2l.07-.99c.11-.44.12-.87.27-1.27.07-.2.27-.64.5-.67.23-.03.67-.33.69-.61.02-.32-.37-.6-.33-.97.07-.73,1.14-.43,1.45-1.07.07.06.16.18.18.17.46-.24.76-.69,1.28-.85.25-.08.4.13.59.16.1.01.39.03.35-.15-.02-.1-.02-.23-.02-.33,0-.21,0-.37.01-.55.06-.65-.21-1.01-.64-1.37.1-.11.43-.48.62-.48.15-.21.45-1.62,1.35-.71.2.2.43-.08.65-.13.34-.06.13-.49.15-.74.01-.25,0-.54.09-.77.11-.3.44-.47.75-.6-.03-.03-.07-.06-.1-.1.13,0,.27.03.38-.02.53-.25.41-.8.5-1.25.03.03.06.09.1.09s.06-.08.1-.08.06.05.1.09c.1-.44.5-.73.59-1.17.34.1.15-.29.39-.38.1-.04.25.04.28-.11,0-.03-.05-.06-.08-.1.4,0,.59-.35.74-.61.11-.2.09-.5.09-.76,0-.66.3-1.35.63-1.89.2-.33.79-.78,1.17-.16.3-.34.03-.94.5-1.02.18-.03.3.29.56.38.47.16-.24.88.32.99.53.11.45-.28.63-.71.11-.25.54-.11.8-.18.33-.09-.03-.54-.18-.72-.03.03-.06.06-.1.1,0-.1.05-.26-.1-.28-.8-.1-.26-.87-.12-1.29.01-.04-.12-.11-.16-.19-.04-.1.33-.1.09-.29.31-.04.74-.02.82-.31.03-.12.04-.31.06-.47.09.03.17-.08.19-.07.39.15.94.81,1.01.26.05-.39.14-1.09.5-1.3.09-.06.39-.05.41-.16.06-.38-.28-.71-.4-1.08-.01-.05.09-.3.17-.28.32.11.78.16.95-.01,0,0,0,.01,0,0,.18-.47-.7-.59-1.16-.67.03-.03.09-.07.09-.1-.01-.08-.09-.13-.18-.1.11-.19.09-.45.3-.58.05-.03.14.01.18-.02.29-.27.43-.73.11-1.07-.12-.13.38-.08.09-.29.19,0,.41.05.57-.02.39-.17.82-.38,1.02-.7.18-.29.27-.69.57-.79.35-.12.72-.09.96-.44-.16-.1-.08-.26-.1-.39.13.02.29-.06.39.1.41-.32.34-.93.71-1.23.22-.18.73.03.81-.34.15-.69.49-1.2.96-1.6.28-.24.77-.27.98-.57.16-.23,0-.65.11-.92.21-.52.81-.7,1.06-1.22.08-.17-.11-.48.16-.64.31-.18.65-.02.87.28.32-.44.05-1,.29-1.47.26-.52.45-1.16.92-1.39.36-.18.73-.36.9-.68.17-.32.37-.66.33-1.05.11,0,.23.04.29-.1.24.12.26.58.33.52.64-.6-.07-1.68.32-2.44.16-.32.69,0,.99-.17.08-.05.29-.09.28-.35,0-.24.12.11.23.1-.06.29.04.57.3.65.2.06.53-.11.63.06.14.24-.11.61-.07.84.06.37.37.73.56,1.11.11.21-.28.42-.22.65.2.82.45,1.61.29,2.44-.07.37-.47.64-.53,1.08-.05.46.45.68.45,1.17,0,.43.04.89-.37,1.02-.15.04-.36.03-.45.17-.12.2.3.31.17.57.37.13.71.37.83.7.29.79-.17,2.19,1.02,2.33.07.79.66,1.52.57,2.23-.13,1.12-1.31,2.89-2.16,3.7-.41-.19-1.18,1-1.44,1.19.07.06.13.13.2.2-.21.18-.14.46-.29.68-.18.25-.6.2-.64.5-.11.61-.66,1.05-1.01,1.55.19.13-.01.3-.04.37-.38.78-1.27.9-1.5,1.85-.05.22-.69.18-.74.52-.09.62-.67.86-.77,1.45-.05.33-.5.07-.64.31-.04.08.03.21.04.29.04.37-.31.55-.64.68.03.03.07.07.1.1-.37-.04-.42.38-.68.49.16.34-.16.69-.4.73-.18.03-.44-.12-.58-.34-.04.15-.28.04-.28.2-.01.41.43.79.23,1.14-.17.31-.38.63-.65.88-.34.31-1,.29-1.14.57-.19.34-.08.93-.22,1.4-.17.57-1.01.12-1.09.6-.04.24.24.78-.08.93-.41.18-.86.36-1,.74-.14.4-.69.64-.57,1.02.01.04,0-.04,0,0,0,.24-.19.42-.24.6-.21.76-.99,1.15-1.53,1.73-.07.08.12.43.01.62-.2.37-.87.19-.97.53-.07.27-.16.67-.03.93.27.55,1.08.53,1.42,1.09.34-.26.19-.86.08-1.2-.11-.33.5-.48.9-.58.08-.02.16-.16.19-.15.41.22.62.74,1.09.81.46.06.54-.41.75-.75.12-.2-.21-.31-.22-.57-.01-.21-.03-.4.15-.46.24-.08.52-.07.76,0,.3.08.33.61.48.58.63-.13-.17-.94.05-1.47.08-.19.42-.22.51-.08.14.23.19.55.44.62.13.03.4,0,.44-.08.32-.72.95-.71,1.59-.84.62-.13-.49-1.25.06-1.27l1.04-.02c.06.03.12.06.18.09.02-.06.19-.14.24-.14-.05-.2.22-.52-.05-.64.17-.23.51-.25.77-.28.39-.04.5-.77.99-.85.23-.04.45.33.65.21.36-.21.76.02.96-.19.18-.19.4-.42.49-.66.11-.31-.21-.88.16-1,.34-.11.62.47.95.46.28,0,0-.4.03-.63.06-.47.3-.78.59-1.03.14-.12.38-.03.57.13.08.07.26.06.36,0,.3-.19.44-.54.46-.86.02-.24-.13-.53.15-.65.35-.16.72-.02.9.22.13.17-.36.44-.36.63,0,.25.37.53.63.63.13.05.25-.26.25-.43,0-.24-.22-.48-.22-.68,0-.5.25-1.07.73-1.11.33-.02.58.54.96.47.37-.06.37-.69.71-.77.32-.08.44-.31.52-.47.11-.22.18-.54.36-.61.2-.08.54-.14.73-.01.26.18.31.57.62.73.14.07.32.08.48.09.3.02.67-.03.74-.37.05-.24.19-.39.34-.45.15-.05.28-.11.38-.23.35.35,1.2.11,1.4-.19.09-.14.63-.32.63-.49,0-.37.64-.62,1.05-.84.27-.1,1.08.06,1.41.15-.03.03-.12.15-.12.18.03.15.24.16.35.17-.06.51.3.71.54,1.06.59.88,1.17,1.88,1.71,2.75.64,1.02,1.22,2.22,1.83,3.25.44.75,1.05,1.51,1.33,2.3.02.06-.02-.06,0,0,.42,1.13.93,2.36.68,3.54-.2.91-1.15,1.45-1.7,2.29-.24.37-.37.77-.59,1.16-.18.33-.39.5-.67.72-.42.35-.86.84-.87,1.41,0,.31-.25.57-.34.71-1.04,1.5-2.99,5.06-4.1,6.53-.36.48-1.82,3.22-2.12,3.74-.25.45-.44.99-.9,1.31.25.27-.12.45-.17.67-.07.31-.27.69-.61.89.25.27-.13.44-.17.67-.11.59-.57,1-.86,1.54-.25.46-.63.91-.81,1.34-.22.52-.48,1.01-.75,1.5l-.1.17c-.9,1.65-1.87,3.24-2.52,5.04-.1.27-.51.46-.56.72-.07.34-.44.47-.41.87.03.37-.47.57-.58.89-.12.35-.2.72-.38,1.03-.04.07-.09.17-.14.23,0,0-1.11,2-1.14,2.14-.03.14.1.4.06.52-.04.12-.31.44-.39.75-.08.31-.42.71-.56.92-.14.2-.88,1.47-1.01,2.05-.13.58-1.8,3.64-2,3.92-.2.28-1.98,4.06-2.09,4.26-.11.21.03.52-.12.93-.14.41-1.61,4.73-1.72,4.99-.12.26-.25.36-.35.51-.1.15-.65,2.22-.79,2.49-.14.27-.28.27-.32.61-.04.34-.31,2.12-.44,2.19-.14.07-.45.34-.46.51,0,.17-.18.55-.29.79-.11.24-.7.61-.44,1.68.26,1.07-.46.95-.54,1.43-.08.48-.56.47-.26,1.3.3.83-.08.89-.09,1.17,0,.27-.44,3.3-.55,3.68-.15.51.04,1.17,0,1.69-.05.7-.23,1.5-.67,2.16.27.12-.08.35.1.49-.29.3-.3.75-.4,1.1-.1.35-.12.81-.07,1.25.04.28.16.68-.12.96.23.14.12.45.12.59,0,.9.04,1.72-.13,2.65-.21,1.2-.11,2.39-.11,3.59,0,.14-.11.45.12.58-.27.4-.04.86-.04,1.27,0,.84.12,1.68.21,2.53.08.76.4,1.5.53,2.27.07.38-.19.86-.15,1.25.14,1.52.93,2.87,1.16,4.4.11.74.89.92.99,1.56.05.3-.09.59-.23.89-.07.16.14.37.21.55.14.35.82.13.98.53.08.21-.27.4-.29.58-.04.36.53.6.47.96-.03.16.07.3.1.38.15.4.86.28.98.71.14.52.51.84.67,1.28.15.4.39,2.29-.19,2.17-1.14-.25-2.09-1.23-2-2.25.05-.63-.67-1.12-1-1.6-.72-1.05-1.42-1.34-1.74-2.61-.05-.19-.31-.01-.38-.2-.11.1-.41.04-.35.17.12.25-.13.27-.15.28-.88.32-1.55-.89-1.96-1.59-.23-.38-.4-.79-.78-.99-.71-.4-.77-1.22-1.45-1.72-.42-.31-.42-1.14-.31-1.83.1-.6-.8-.46-.79-.87,0-.27-.24-.24-.26-.39-.19.24-.39-.16-.59,0-.08-.15-.04-.34-.12-.48-.11-.2-.32-.31-.46-.51-.95-1.28-1.41-2.65-2.1-4.02-.11-.21.28-.6-.06-.85-.06.14-.23.13-.27.08-.26-.32-.81-.16-.81-.47,0-.29-.21-.77-.39-.8-.34-.06-.66-.23-.93-.35-.27-.11-.24-.8-.62-.84-.29-.03-.56-.18-.58-.45.07,0,.15.02.18-.01.17-.18.37-.42.18-.65-.19-.25-.45-.25-.75-.34-.3-.1-.11-.41-.11-.65-.01-.36-.39-.57-.43-.88-.04-.23-.31-.46-.12-.66.25-.26.08-.55.13-.81.09-.54-.65-.92-.48-1.44.02-.08.27-.24.54-.15.15.04.12-.29.12-.35-.03-.78-.3-1.55-.45-2.36-.07-.39.17-.86.16-1.25-.03-1.13.16-2.34-.37-3.39-.08-.16-.27-.35-.3-.52-.06-.41.44-.41.67-.59h.7c.05.12.12.23.23.32.11.08.2.07.31.08-.04.58.9.44,1.08.13h0Z"/><g id="g3526"><g id="g3406"><path id="path2470" d="M30.43,282.66c2.34-1.06,3.95-3.43,6.64-9.79,4.58-10.82,4.63-12.12.58-16.05-1.42-1.38-3.85-3.58-5.39-4.88-3.35-2.84-4.13-3.93-4.13-5.82,0-1.74,2.34-7.71,3.83-9.78,2.02-2.78,1.89-2.75,12.23-2.7l9.24.05.84-1.74c.46-.95.84-1.82.84-1.91s-6.63-.18-14.73-.17c-13.48,0-14.86.07-16.25.71-.84.38-1.82,1.03-2.18,1.44-1.04,1.17-6.09,13.41-6.3,15.27l-.19,1.69,3.37,3.08c8.81,8.07,9.38,8.71,9.36,10.39-.04,2.83-5.41,14.42-7.23,15.62-.83.55-2.33.66-10.34.76l-9.37.12-.63,1.32c-.35.73-.63,1.75-.63,2.29v.96l14.54-.13c12.36-.11,14.74-.22,15.89-.74ZM44.71,283.1h4.98s3.95-8.99,3.95-8.99c2.78-6.34,4.17-9.08,4.71-9.29.42-.17,4.7-.83,9.52-1.48,10.19-1.36,10.95-1.54,13.05-3.06,1.76-1.27,3.72-5.03,8.63-16.53,3.59-8.41,3.77-11.32.8-13.13-1.14-.7-2.01-.74-15.09-.73h-13.87s-11.7,26.51-11.7,26.51c-6.43,14.58-11.69,26.65-11.69,26.83,0,.18.39.23.86.1.47-.13,3.1-.23,5.84-.23ZM60.24,259.55c.1-.33,2.65-6.33,5.65-13.33l5.46-12.74,3.14-.11c3.75-.13,4.95.41,4.95,2.23,0,.63-1.22,4.18-2.71,7.88-4.77,11.86-6.26,14.43-8.81,15.25-.67.22-2.72.62-4.55.91-3.01.47-3.31.46-3.14-.08ZM111.08,281.47c.36-.89.76-1.91.9-2.28.23-.62-.34-.67-8.7-.67s-8.96-.04-9.17-.71c-.28-.89-.2-1.1,4.24-11.36l3.67-8.46h14.92l.84-1.72c.46-.95.84-1.8.84-1.9s-3.34-.18-7.41-.18-7.41-.14-7.41-.32c0-.55,7.12-17.04,7.81-18.09,1.38-2.11,2.25-2.29,11.61-2.43l8.59-.13.82-1.68.82-1.68h-28.35l-1.93.96c-1.2.6-2.3,1.52-2.89,2.42-1.26,1.91-18.77,42.86-19.26,45.06-.45,1.99-.08,3.28,1.19,4.17.76.53,2.62.61,14.56.61h13.7s.65-1.61.65-1.61ZM148.8,281.04c.33-1.13.6-2.15.6-2.27s-3.96-.27-8.8-.32c-7.63-.09-8.85-.18-9.19-.72-.3-.48,1.55-5.13,8.23-20.72,4.74-11.06,8.96-20.66,9.38-21.35.42-.68,1.2-1.41,1.73-1.61.54-.2,4.91-.37,9.71-.37h8.73l.75-1.74c.41-.96.75-1.81.75-1.9,0-.36-28.4-.13-29.75.25-2.83.79-3.18,1.45-13.26,25.07-10.46,24.52-10.63,25.05-8.57,26.83l1.07.92h28.03l.6-2.05ZM176.57,259.82c5.44-12.8,10.51-24.77,11.29-26.61l1.4-3.34h-11.98l-11.33,26.14c-6.23,14.37-11.41,26.35-11.51,26.61-.14.37,1.21.47,6.03.47h6.22s9.88-23.27,9.88-23.27ZM189.97,272.26l7.14-10.83h4.87s4.87,0,4.87,0l-.22,1.62c-.2,1.46-2.11,19.49-2.11,19.89,0,.09,2.63.16,5.86.16h5.86l.23-1.81c.13-.99,1.08-12.15,2.11-24.8,1.04-12.65,1.98-23.81,2.1-24.8l.22-1.81h-5.73c-6.41,0-7.01.17-9.15,2.54-.97,1.07-32.41,47.08-34.29,50.18-.25.41.78.5,5.41.5h5.71l7.14-10.83ZM201.25,257c.27-.69,6.65-11.63,6.97-11.92.2-.19.1,1.02-.7,8.46l-.44,4.08h-3.03c-2.64,0-3-.08-2.79-.62ZM247.1,281.35c1.26-2.95,1.51-2.82-5.49-2.82-3.43,0-6.51-.1-6.84-.23-.34-.13-.6-.67-.6-1.26s4.36-11.35,9.69-23.96c5.33-12.61,9.69-22.99,9.69-23.08s-2.69-.11-5.98-.05l-5.98.11-2.97,6.84c-19.17,44.17-18.83,43.26-16.5,45.27l1.07.92h23.17l.75-1.74ZM274.49,257.05c6.05-14.22,11.09-26.15,11.21-26.53.2-.63-.18-.67-5.75-.57l-5.97.11-11.5,26.52-11.5,26.52,6.26-.1,6.26-.1,10.99-25.85ZM303.47,281.48c.31-.89.69-1.92.84-2.28.25-.62-.38-.67-10.2-.67-6.52,0-10.56-.14-10.71-.38-.13-.21-.09-.63.08-.94.36-.65,15.22-16.91,28.43-31.11,5.02-5.4,9.59-10.43,10.17-11.18,1.24-1.61,1.34-3.24.29-4.29-.73-.73-1.27-.76-15.74-.76h-14.98l-.61,1.78c-.33.98-.61,1.92-.61,2.09s4.18.31,9.29.31c5.62,0,9.38.15,9.52.37.27.43-1.03,1.86-22.99,25.48-16.7,17.96-18.37,20.03-17.5,21.65.22.41.7.92,1.06,1.13.42.24,6.64.39,16.88.4h16.21s.57-1.6.57-1.6ZM340.44,280.99c.51-1.16.93-2.18.93-2.28s-3.91-.18-8.7-.18q-10,0-9.07-2.75c.31-.89,2.14-5.26,4.09-9.7l3.53-8.08h14.94l.84-1.72c.46-.95.83-1.8.83-1.9s-3.34-.18-7.41-.18c-4.3,0-7.41-.15-7.41-.35,0-.76,7.33-17.54,8.07-18.49,1.46-1.86,2.59-2.06,11.61-2.06h8.3l.83-1.71.83-1.71h-14.16c-15.84.02-16.01.04-18.38,2.75-1.37,1.56-19.5,43.61-19.81,45.96-.11.79-.08,1.88.06,2.43.49,1.93,1.46,2.06,15.92,2.07h13.23s.93-2.09.93-2.09ZM369.34,282.71c9.27,0,9.58-.02,10.8-.86.69-.47,1.76-1.48,2.38-2.25.64-.8,4.93-10.2,10.07-22.05,7.74-17.88,8.96-20.97,9.12-23.02.18-2.3.15-2.41-1.15-3.71l-1.34-1.34h-30.7l-10.61,24.8c-5.83,13.64-11.01,25.73-11.51,26.86l-.9,2.06,7.15-.25c3.93-.14,11.44-.25,16.69-.25ZM359.77,277.86c.12-.37,4.4-10.42,9.5-22.33l9.29-21.67h4.76c5.29,0,5.71.16,5.63,2.22-.04,1.12-4.52,11.86-14.38,34.45-1.46,3.34-2.71,5.62-3.6,6.56l-1.37,1.44h-5.03c-4.61,0-5.01-.05-4.81-.66Z"/><path id="path2561" class="cls-1" d="M443.69,307.85c-.27-.39-.49-.82-.49-.96,0-.55-1.99-2.7-2.49-2.7-.6,0-2.55-2.24-3.13-3.6-.21-.49-.82-1.45-1.36-2.12-.54-.68-1.27-1.82-1.64-2.53-.36-.71-1.02-1.69-1.47-2.16-2.23-2.41-2.57-3.27-2.73-6.9-.08-1.87-.24-3.88-.35-4.48-.16-.86-.09-1.13.33-1.29.3-.11.8-.04,1.12.16.54.34.56.31.22-.34-.2-.39-.48-.91-.63-1.17-.6-1.06-.6-1.25.02-2.04.36-.45.65-1.21.65-1.69s.14-.95.31-1.06c.17-.1.31-.7.31-1.33,0-1.07.67-3.57,1.28-4.77.15-.3.27-.75.27-1.01,0-.29.29-.47.77-.47.75,0,.77-.06.77-2.19,0-1.93.07-2.21.62-2.35.5-.13.62-.42.62-1.53,0-1.54.5-1.95,1.72-1.39.71.32.73.31.37-.34-.21-.37-.58-.84-.82-1.03-.54-.43-.23-1.37.45-1.37.41,0,.46-.22.29-1.24-.21-1.22-.19-1.24.72-1.24.66,0,.99.18,1.13.62.11.34.43.75.73.9.46.25.52.15.41-.76-.07-.58-.31-1.21-.55-1.41-.24-.2-.43-.84-.43-1.43,0-1.02.05-1.06,1-.97.87.09.99.01.87-.52-.08-.34-.15-1.17-.16-1.85-.02-1.13.05-1.25.85-1.34.77-.09.86-.21.79-1.08-.1-1.16.3-2.68.69-2.68.15,0,.28-.2.28-.44s.18-.63.4-.85c.22-.23.49-.65.61-.94.12-.31-.71.12-2.03,1.06-1.23.88-2.65,1.89-3.15,2.24-.51.36-1.5,1.2-2.2,1.87-1.75,1.67-3.81,3.24-4.28,3.24-.21,0-1.56,1.05-2.98,2.34-4.06,3.67-4.71,3.75-7.65,1-1.13-1.05-2.94-3.08-4.02-4.49-1.57-2.05-1.98-2.82-2-3.73-.04-1.37,1.69-5.16,2.57-5.62.32-.17.64-.7.69-1.17.07-.65.28-.87.89-.94.68-.08.78-.22.67-.97-.18-1.21.38-2.11,1.63-2.63,1.1-.46,1.49-1.24,1.33-2.65-.07-.6.07-.79.59-.87.38-.05.77-.37.87-.7.1-.33.32-.6.48-.6s.29-.34.29-.76c0-.72.74-1.35,2.25-1.9.37-.14.49-.39.36-.8-.22-.71.61-2.11,1.26-2.11.25,0,.46-.11.46-.25s.7-1.11,1.54-2.17c.85-1.06,1.54-2.17,1.54-2.48,0-.62,1.56-1.91,2.31-1.91.3,0,.48-.28.48-.76,0-.53.27-.91.89-1.23,1-.51,1.28-1.04,1.28-2.37,0-.73.5-1.41,2.48-3.39,1.36-1.36,2.83-3.03,3.25-3.7.43-.68.91-1.23,1.08-1.23s.31-.28.31-.61.35-.84.77-1.12c.42-.28.77-.7.77-.95s.21-.52.46-.62c.25-.1.46-.44.46-.77,0-.72.66-1.02,1.69-.76,1,.25,1.37,1.64,1.17,4.42-.12,1.7-.01,2.56.5,4.01.98,2.75.88,3.71-.58,5.52-1.47,1.83-1.58,1.98-2.11,2.9-.65,1.12-4.13,5.29-4.43,5.29-.15,0-.27.24-.27.54s-.35.89-.77,1.31c-1,1-2.94,3.64-2.94,3.99,0,.15-.22.45-.48.67-.26.22-.6.63-.75.91-.23.43-.13.49.64.38.5-.08.91-.33.91-.56s.19-.43.43-.43.61-.21.82-.48c.22-.26.58-.41.8-.32.22.08.9-.31,1.5-.88.6-.57,1.54-1.22,2.1-1.44.55-.22,1.53-.85,2.18-1.4,1.4-1.18,6.26-3.64,6.68-3.38.16.1.38.04.49-.13.11-.17.57-.32,1.03-.33.46,0,1.1-.21,1.43-.46,1.36-1.03,1.86-.66,4.22,3.15,2.65,4.27,3.2,6.18,2.17,7.5-.35.44-1.22,1.77-1.93,2.96-.72,1.19-2.16,3.56-3.21,5.26-5.26,8.52-12.94,23.97-15.2,30.59-.93,2.74-1.89,5.28-2.14,5.66-.24.38-.44,1.03-.44,1.45s-.14.85-.31.95c-.17.11-.31,1.12-.32,2.26,0,1.14-.22,3.04-.48,4.23-.68,3.08-.92,10-.47,13.12.33,2.28,1.54,5.86,2.24,6.66.14.16.26.48.26.7s.36.95.8,1.62c.45.67.75,1.52.7,1.93-.14,1-1.29,1.12-1.93.21Z"/></g></g></svg>