<svg id="Layer_1" data-name="Layer 1" xmlns="http://www.w3.org/2000/svg" width="423.02" height="63.6" viewBox="0 0 423.02 63.6"><title>Stanley Hand Tools logo - Brandlogos.net</title><g id="layer1"><g id="g48032"><path id="path15936" d="M174.41,398.94a40.24,40.24,0,0,0,18.52,4.46c5.33,0,11.46-1,11.46-5.72,0-10.92-31.75-4.67-31.75-27,0-14.74,14-18.52,26.62-18.52A64.69,64.69,0,0,1,218.5,355l-1.57,13.15a43.73,43.73,0,0,0-16.35-3.57c-4.24,0-10.8.28-10.8,5.62,0,9.66,31.93,4.66,31.93,26.07,0,15.89-14.79,19.51-28.77,19.51a72.91,72.91,0,0,1-20.44-3Z" transform="translate(-172.49 -352.2)"/><path id="path15940" d="M279,353.38H226.1v12.43h18.06v48.81h16.77V365.82H279Z" transform="translate(-172.49 -352.2)"/><path id="path15944" d="M576.2,353.38,564,377.94l-12.36-24.56h-19.3l23.27,38.16v23.08h16.77V391.54l23.1-38.16Z" transform="translate(-172.49 -352.2)"/><path id="path15948" d="M351.33,353.38v61.24h16.15v-33l27.39,33h13.72V405.4l-43.46-52Z" transform="translate(-172.49 -352.2)"/><path id="path15952" d="M408.6,384.39v-31h-25.7Z" transform="translate(-172.49 -352.2)"/><path id="path15956" d="M496,389.84h26.47V377.63H496V365.42h29.09v-12H478.79v61.24h47.28V402.41H496Z" transform="translate(-172.49 -352.2)"/><path id="path15960" d="M441.12,353.38H423.91v61.24h44.74V402H441.12Z" transform="translate(-172.49 -352.2)"/><path id="path15964" d="M324.43,414.62H342.1l-23.43-61.24H299.19L276.1,414.62h16.38l4.27-12.24h23.57Zm-23.84-23.82,8.17-24.58,7.85,24.58Z" transform="translate(-172.49 -352.2)"/></g></g></svg>