<?xml version="1.0" encoding="UTF-8"?><svg id="Layer_1" xmlns="http://www.w3.org/2000/svg" xmlns:xlink="http://www.w3.org/1999/xlink" viewBox="0 0 140 38"><defs><style>.cls-1{fill:none;}.cls-2{fill:#eb5f1b;}.cls-3{clip-path:url(#clippath);}</style><clipPath id="clippath"><rect class="cls-1" width="140" height="38"/></clipPath></defs><g class="cls-3"><path class="cls-2" d="M5.05,9.88L.5,7.25c-.23-.13-.52.05-.5.31.25,3.38,1.3,9.77,5.51,17.07,4.21,7.29,9.21,11.41,12.02,13.31.22.15.52,0,.52-.28v-5.26c.15-5.51-.77-9.99-2.75-13.43-1.99-3.44-5.4-6.47-10.25-9.1"/><path class="cls-2" d="M37.29,4.35c.23-.13.22-.47-.02-.59-3.05-1.48-9.12-3.76-17.54-3.76S5.25,2.28,2.19,3.76c-.24.12-.25.46-.02.59l4.55,2.63c4.7,2.89,9.04,4.33,13.01,4.33s8.31-1.44,13.01-4.33l4.55-2.63h0Z"/><path class="cls-2" d="M38.96,7.25l-4.55,2.63c-4.85,2.63-8.27,5.66-10.25,9.1-1.99,3.44-2.9,7.92-2.75,13.43v5.26c0,.27.3.43.52.28,2.81-1.9,7.81-6.02,12.02-13.31,4.21-7.29,5.27-13.68,5.51-17.07.02-.27-.27-.44-.5-.31"/><path d="M59.16,9.05l-4.11,9.17-4.11-9.17h-5.95l6.95,12.45c.34.61.53,1.31.53,2.02v5.44h5.26v-5.4c0-.69.17-1.38.51-1.98l6.83-12.52h-5.91Z"/><path d="M92.03,9.05h-8.07v19.91h8.07c6.39,0,9.23-2.51,9.23-8.13v-3.65c0-5.61-2.76-8.04-9.23-8.13M95.95,20.83c0,2.85-1.13,4.01-3.92,4.01h-2.82v-11.66h2.82c2.75,0,3.92,1.2,3.92,4.01v3.65h0Z"/><path d="M109.46,21.15h7.55v-4.1h-7.55v-3.88h8.48v-4.13h-13.74v19.91h13.97v-4.13h-8.71v-3.68Z"/><path d="M69.3,9.05l-7.17,19.91h5.47l.89-2.89h7.07l.89,2.89h5.47l-7.17-19.91h-5.46ZM69.7,22.02l2.32-8.12,2.28,8.12h-4.6Z"/><path d="M132.83,9.05h-5.46l-7.17,19.91h5.47l.89-2.89h7.07l.89,2.89h5.47l-7.17-19.91ZM127.79,22.02l2.32-8.12,2.28,8.12h-4.6Z"/></g></svg>