<svg xmlns="http://www.w3.org/2000/svg" viewBox="0 0 176.8 23.46"><title>Royal Enfield logo</title><path d="M480.16,504h-5.37v.06a2.21,2.21,0,0,1,.29,1.1,13.56,13.56,0,0,1-.52,2.31l-3.41,9.82a9.69,9.69,0,0,1-1.33,2.83v.06h4.45v-.06a2.23,2.23,0,0,1-.35-1.16,6.54,6.54,0,0,1,.46-2l.23-.69h4.85s.29.87.52,1.39a3.66,3.66,0,0,1,.23,1.21,3.93,3.93,0,0,1-.23,1.21v.06h6.47v-.06a11.45,11.45,0,0,1-1.62-3.47Zm-4.68,9.65,1.5-4.51h0l1.56,4.51ZM467,516.62a7.47,7.47,0,0,0,.58,3.52v.06h-6.36v-.06a6.38,6.38,0,0,0,.52-3.47v-3.29l-.87-1.68L457.86,506a5.8,5.8,0,0,0-1.39-1.91V504H462v.06l3.29,6.7.92-1.85.92-1.85a4.32,4.32,0,0,0,.58-1.85,1.64,1.64,0,0,0-.35-1.1V504h4.39v.06l-4.45,8.78-.35.64.06,3.12Zm32,3.58H487.62v-.06a7.7,7.7,0,0,0,.52-3.47v-9.13a7.34,7.34,0,0,0-.52-3.41v-.06h6.18v.06a8.37,8.37,0,0,0-.46,3.47v9.3a14.31,14.31,0,0,0,2.37.23,9.21,9.21,0,0,0,3.52-.46h.17Zm-50-16.58c-5,0-8.49,3.12-8.49,7.51,0,6.41,6.82,7.34,9.19,5.26l-.4-.81c-2.08.4-3.93-1.16-3.93-4.68,0-2.83,1.5-4.62,3.58-4.62,2.43,0,3.93,2.43,3.93,6,0,4-2.31,7-6.59,7-4.91,0-8.61-3.87-10.92-7.74a5.72,5.72,0,0,0,4-5.49c0-3.35-2.54-5.72-7.11-5.72H423.6v.06a10.92,10.92,0,0,1,.52,4v12.31a7.7,7.7,0,0,1-.52,3.47v.06H430v-.06a9.7,9.7,0,0,1-.52-3.47v-3.41h.81c4.45,6.53,9.53,9.24,15,9.24,7.86,0,12.48-5,12.48-10.46C457.75,507.38,454.22,503.62,449,503.62Zm-19.41,7v-7.34h1.79c2.08,0,2.95,1.21,2.95,3.18,0,2.37-1.39,4.22-3.64,4.22A8.63,8.63,0,0,0,429.55,510.67Zm107.76-6.59a7.51,7.51,0,0,0-.52,3.41v10.05a5.88,5.88,0,0,0,.52,2.54v.06h-3.76a11.44,11.44,0,0,1-2.83-2.54c-.92-1-5.26-6-5.26-6h-.06v4.8a27.82,27.82,0,0,0-3.93.75v-9.71A7.34,7.34,0,0,0,521,504V504h4.56l7.34,8.9h0v-5.32a7.34,7.34,0,0,0-.52-3.41v-.06h5Zm-7.57,16.12c-6.41.06-7.92,3.52-16.06,3.52a28.93,28.93,0,0,1-7.4-1v-.06a7.44,7.44,0,0,0,.52-3.41V504.37a10.92,10.92,0,0,0-.52-4v-.06H519.4l.4,3.64h0a10.4,10.4,0,0,0-3.93-.52H512.4v6.3h1.68a23.14,23.14,0,0,0,4.51-.29h.12v3.81h-.06a20.7,20.7,0,0,0-4.45-.35h-1.73v6.3a20.28,20.28,0,0,0,3.87.46c4.85,0,6.93-1.73,11.73-1.73h.4c.92,1.1,1.73,2,2.08,2.31Zm27.91-12.65v9.19a7.7,7.7,0,0,0,.52,3.47v.06h-6.24v-.06a7.7,7.7,0,0,0,.52-3.47v-9.19a7.34,7.34,0,0,0-.52-3.41v-.06h6.24v.06A7.34,7.34,0,0,0,557.64,507.55Zm-12.54,3.52h.46a16.71,16.71,0,0,0,3.41-.23h.12v3.35H549a10.68,10.68,0,0,0-3.35-.35h-.52v2.77a6.58,6.58,0,0,0,.58,3.52v.06h-6.3v-.06a7.7,7.7,0,0,0,.52-3.47v-9.13a7.34,7.34,0,0,0-.52-3.41v-.06h10.75l.4,3.29h-.06a7.78,7.78,0,0,0-3.29-.52h-2.08v4.22Zm26.69,5.78-.4,3.35H560.3v-.06a7.7,7.7,0,0,0,.52-3.47v-9.13a7.34,7.34,0,0,0-.52-3.41v-.06H571l.4,3.29h-.06a7.78,7.78,0,0,0-3.29-.52H566v3.7h.4a16.71,16.71,0,0,0,3.41-.23H570v3.35h-.12a10.68,10.68,0,0,0-3.35-.35H566v3.81a12.32,12.32,0,0,0,2.14.17,7.86,7.86,0,0,0,3.47-.46Zm28.6-4.22c0,5.55-4,9.88-10.86,9.88-5.26,0-6.93-2.31-13.46-2.31h-2.72v-.06a7.7,7.7,0,0,0,.52-3.47v-9.19a7.34,7.34,0,0,0-.52-3.41V504h6.24v.06a8.91,8.91,0,0,0-.52,3.47v9.82c3.87,0,5.6,1.16,9,1.16,4.74,0,7-2.6,7-6.3,0-3.18-1.62-5.55-4.45-5.55h-1.85v10a15.12,15.12,0,0,1-5.2-.69v-8.49a7.34,7.34,0,0,0-.52-3.41V504h7.34C596.53,504,600.4,507.78,600.4,512.64Z" transform="translate(-423.6 -500.27)" style="fill:#da291c"/></svg>