<svg xmlns="http://www.w3.org/2000/svg" viewBox="0 0 449.87 154.68"><title>vespa logo</title><path d="M317.84,440.55c3.45,8.08,9.33,15.44,15.64,22.16-1.74,3-4.62,5.39-6.6,8.27a52.38,52.38,0,0,0-10.16,43.31c2.66,14.28,8,27.71,17.32,39.64.5-24.44,8.94-45.92,27.36-61.26,5.6-3.91,11.25-7.73,17.8-8.83a129.17,129.17,0,0,0,14,21.7,1.2,1.2,0,0,1-.79,1.74c-17.54-.44-35,13.3-41.31,29.25A55.66,55.66,0,0,0,347,557.4c.23.69.88.23,1.22.09l45.93-29.82c2.32-10.48,10.2-21.09,21-24.4s23.67-.61,30.62,8.87c2,2.35,3.09,5,4.38,7.59l-1,1.5L427,540.51c-.06.86,1.07.63,1.61.9a17.46,17.46,0,0,0,13-2.12l46.07-39.89,8.67-7.57c2,0,3.5,1.7,5.16,2.71a33.41,33.41,0,0,1,12.36,21.14,1,1,0,0,0,1.44.21c9.39-6.2,18.56-13,27.9-19.32.6-1.8.68-3.81,1.28-5.62,12.06-11.39,27.64-17.58,44-13.27a28,28,0,0,1,17.25,18.24c.36.5.94.12,1.34,0l17.14-10.67c2.68-2.08,3.36-5.36,5.57-7.79C638,466.52,651,460.89,664.29,464.2c4.51.93,8.46,3,12.36,5.24,1.39-1.58.42-4.87,3.15-5.27,7.09,0,14.26.27,21.21-.19l.18.57L697.31,482a8.68,8.68,0,0,0,4.13,7.91c1.67,1.31,4,1.31,6.07,1,1.79-.49,3.32-2,4.8-3.14,3.87,2.09,7.58,4.49,11.36,6.74,2.64-.32,5.39-.21,7.78-1.25l.54.15a28.39,28.39,0,0,0,4.95,7.52l-.83.73-37.18,6.91L646.19,519l-90,17.65-.62.86-2,10.72-.81.39c-6.36,1.21-12.67,2.56-19.1,3.58.07-3.41,1.49-6.22,1.09-9.33C524.6,544,515,546.21,505.27,548l-64.83,12.91-146,28.4c-.62-.24-.13-.91.09-1.23a37.55,37.55,0,0,0,9.15-16.05c6.44-1.53,13.22-2.74,19.81-4.09,2-.5,4.12-.64,6-1.48-23.19-22.63-40.57-49-42.32-79.59-1-18.72,6.36-34.08,19.29-46.25a32.7,32.7,0,0,1,9-6c1,1.78,1.51,3.95,2.38,5.88m306.41,55.57c-.33-.11-.54.1-.79.17L601.7,510.66c-.53,2.43-2.52,4.11-3.57,6.36l35.2-7.16a17.82,17.82,0,0,1-9.08-13.74m-43.46,4a12.07,12.07,0,0,0-4.53-5.48c-3-2-7.74-2.19-10.72,0-2.94,2.59-3.07,7.26-1.74,10.63a11.41,11.41,0,0,0,8.58,6.65,8.28,8.28,0,0,0,7.69-3.15,9.36,9.36,0,0,0,.71-8.69m-20.78,18-.56,0c-.95,1.59-.92,3.66-1.38,5.5l.52.6,8.36-1.43.59-.51a17.87,17.87,0,0,1-7.52-4.12m123.75-17.85c-2.52-.18-3.85-2.79-6.12-3.46l-1.45,3.25c-.21.94-1.53,1.46-1.29,2.49,3.1-.51,6.32-1,8.86-2.29M540.43,510.83l-.55,0-20.55,13.12c-1.71,1.3-3.76,1.95-5.27,3.55a31.22,31.22,0,0,0-2.39,5.43c8.69-1.4,17.26-3.19,25.79-5,1.8-5.28,2.17-11.42,3-17.05m-56.52,10.6-1.59-2.8a1.55,1.55,0,0,0-1.22-.09L453,542.89l-.4,1c8.1-1.45,16.25-2.75,24.2-4.69-.48-1.1-1.58-2.18-2-3.39-1-5.38,5.51-3.47,7.64-7.08a8.21,8.21,0,0,0,1.51-7.28M400,544.89c-2.19-1.81-2.8-5.41-5.85-5.68L361.8,560.57l44.56-8.63,1.71-.55c-2.65-2-5.7-3.82-8-6.5m29-19.7c-.83-.78-1.51-1.9-2.77-1.87A11.1,11.1,0,0,0,414.17,528a10.7,10.7,0,0,0-.54,7.69,3.15,3.15,0,0,0,1.56,1.68l13.74-11.47ZM659.8,487.06a10.55,10.55,0,0,0-4.79-4.93,8.17,8.17,0,0,0-9,1.27c-2,1.88-2.38,5.38-1.44,7.86.69,3,3.61,5.43,6.37,6.27a7.83,7.83,0,0,0,7.83-1.92c2-2.19,2.23-5.95,1-8.56" transform="translate(-287.07 -434.66)" style="fill:#231f20"/></svg>